<?xml version="1.0" encoding="UTF-8"?>
<svg width="500px" height="252px" viewBox="0 0 500 252" version="1.1" xmlns="http://www.w3.org/2000/svg" xmlns:xlink="http://www.w3.org/1999/xlink">
    <!-- Generator: Sketch 50.2 (55047) - http://www.bohemiancoding.com/sketch -->
    <title>pic</title>
    <desc>Created with Sketch.</desc>
    <defs></defs>
    <g id="2018-0129迭代" stroke="none" stroke-width="1" fill="none" fill-rule="evenodd">
        <g id="登录-友企连网关服务" transform="translate(-441.000000, -376.000000)">
            <g id="pic" transform="translate(441.000000, 376.000000)">
                <path d="M88.0332031,167.148438 L71,76" id="Path-4" stroke="#FF8A80" stroke-width="2" stroke-dasharray="8,4"></path>
                <path d="M83,168.482422 L135.777344,55" id="Path-5" stroke="#FF8A80" stroke-width="2" stroke-dasharray="8,4"></path>
                <path d="M82,174.373047 L240.876953,41" id="Path-6" stroke="#FF8A80" stroke-width="2" stroke-dasharray="8,4"></path>
                <path d="M282,215.181641 L365.765625,116" id="Path-7" stroke="#FF8A80" stroke-width="2" stroke-dasharray="8,4"></path>
                <path d="M276,222.3125 L385.394531,197" id="Path-8" stroke="#FF8A80" stroke-width="2" stroke-dasharray="8,4"></path>
                <path d="M415.861349,251.436648 L405.688579,251.436648 C405.452296,251.436648 405.216013,251.318814 405.097872,251.083146 C404.97973,250.906395 404.97973,250.61181 405.038801,250.376142 L422.523752,215.497286 C423.291672,213.906527 424.886583,212.963855 426.658707,212.963855 C428.43083,212.963855 430.025741,213.965444 430.793662,215.497286 L432.137066,218.177099 L438.231558,205.897522 C438.145636,205.577048 438.319778,205.237201 438.631938,205.08124 C438.634032,205.080193 438.636129,205.079159 438.638228,205.078138 L443.858734,194.559524 C444.626024,192.952381 446.219627,192 447.990298,192 C449.760968,192 451.354571,193.011905 452.121862,194.559524 L463.483876,217.452445 L464.464007,215.497286 C465.231927,213.906527 466.826838,212.963855 468.598961,212.963855 C470.371085,212.963855 471.965996,213.965444 472.733916,215.497286 L490.218867,250.376142 C490.337009,250.61181 490.337009,250.847478 490.159797,251.083146 C490.100726,251.318814 489.864443,251.436648 489.62816,251.436648 L480.149933,251.436648 C480.126909,251.505384 480.090549,251.574121 480.039431,251.642857 C479.980408,251.821429 479.744319,251.940476 479.50823,251.940476 L440.553482,251.940476 C440.140326,251.940476 439.845214,251.642857 439.845214,251.22619 C439.845214,250.809524 440.140326,250.511905 440.553482,250.511905 L478.327783,250.511905 L465.70392,225.077049 C465.467238,225.086481 465.223897,224.969441 465.107809,224.776107 C464.913923,224.533933 464.959637,224.172049 465.146254,223.953451 L463.131231,219.893533 C463.102652,219.883221 463.074296,219.8711 463.046308,219.857143 C462.730488,219.699644 462.602281,219.355019 462.703484,219.031698 L457.131205,207.804539 L453.634932,214.899278 C453.517261,215.134441 453.340755,215.252022 453.105414,215.310813 C453.046579,215.193232 452.987744,215.193232 452.987744,215.193232 C452.811238,215.193232 452.634732,215.134441 452.458226,214.958069 L447.398393,209.431748 L441.867878,212.136118 C441.691372,212.194908 441.514866,212.253699 441.33836,212.194908 C441.161854,212.136118 441.044184,212.018536 440.926513,211.842165 L438.978001,207.558687 L417.652813,250.571429 L438.074544,250.571429 C438.4877,250.571429 438.782812,250.869048 438.782812,251.285714 C438.782812,251.702381 438.4877,252 438.074544,252 L416.531388,252 C416.295299,252 416.05921,251.880952 415.941165,251.642857 C415.902716,251.584694 415.87679,251.5139 415.861349,251.436648 Z M416.315269,250.05588 L428.283506,225.941502 L424.511473,224.423364 L420.393004,227.304105 C420.157663,227.362896 420.039993,227.421687 419.922322,227.421687 C419.686981,227.421687 419.510475,227.304105 419.392805,227.127733 L418.687398,226.255035 L406.751854,250.02264 L416.085037,250.02264 C416.166866,250.02264 416.244067,250.034177 416.315269,250.05588 Z M419.389761,224.8564 L420.098828,225.716758 L423.923121,223.071179 C424.099626,222.953597 424.393803,222.894807 424.570309,223.012388 L428.895537,224.708342 L431.372156,219.71829 C431.331278,219.672998 431.295524,219.620998 431.266228,219.562558 L429.553175,216.145373 C429.021538,215.02595 427.899193,214.377863 426.658707,214.377863 C425.41822,214.377863 424.354946,215.02595 423.764239,216.145373 L419.389761,224.8564 Z M479.648829,250.02264 L488.505815,250.02264 L475.214129,223.554511 L473.756594,225.364014 C473.521253,225.540386 473.285911,225.657967 473.109406,225.657967 C473.05057,225.657967 472.9329,225.657967 472.874065,225.599177 L467.990737,223.600294 L466.90902,224.353647 L479.648829,250.02264 Z M474.512213,222.156766 L471.49343,216.145373 C470.961793,215.02595 469.839448,214.377863 468.598961,214.377863 C467.358475,214.377863 466.295201,215.02595 465.704493,216.145373 L464.262645,219.021561 L466.295515,223.117518 L467.520055,222.24811 C467.696561,222.130528 467.990737,222.071738 468.167243,222.189319 L472.9329,224.12941 L474.512213,222.156766 Z M439.792499,205.915851 L441.926713,210.607561 L447.280722,208.020772 C447.574899,207.903191 447.869075,207.961982 448.104416,208.197144 L452.870073,213.370721 L456.223683,206.492215 C456.264084,206.411476 456.316814,206.343056 456.378346,206.287662 L450.882393,195.214286 C450.351192,194.083333 449.229767,193.428571 447.990298,193.428571 C446.750829,193.428571 445.688426,194.083333 445.098203,195.214286 L439.792499,205.915851 Z" id="Combined-Shape" fill="#FF5555" fill-rule="nonzero"></path>
                <path d="M110.611697,251.708935 L105.355766,251.708935 C105.233686,251.708935 105.111607,251.648054 105.050567,251.526292 C104.989527,251.434971 104.989527,251.282768 105.020047,251.161007 L114.053939,233.140264 C114.450697,232.318372 115.274735,231.831325 116.190332,231.831325 C117.105929,231.831325 117.929966,232.348813 118.326725,233.140264 L119.020817,234.524835 L122.169638,228.180386 C122.125245,228.014808 122.215219,227.839221 122.376501,227.758641 C122.377583,227.7581 122.378667,227.757566 122.379751,227.757038 L125.077012,222.322421 C125.473446,221.492063 126.296808,221 127.211654,221 C128.1265,221 128.949862,221.522817 129.346295,222.322421 L135.216669,234.15043 L135.72307,233.140264 C136.119829,232.318372 136.943866,231.831325 137.859463,231.831325 C138.775061,231.831325 139.599098,232.348813 139.995857,233.140264 L149.029748,251.161007 C149.090788,251.282768 149.090788,251.40453 148.999228,251.526292 C148.968708,251.648054 148.846629,251.708935 148.724549,251.708935 L143.827465,251.708935 C143.81557,251.744448 143.796784,251.779962 143.770373,251.815476 C143.739878,251.907738 143.617898,251.969246 143.495919,251.969246 L123.369299,251.969246 C123.155835,251.969246 123.003361,251.815476 123.003361,251.600198 C123.003361,251.384921 123.155835,251.231151 123.369299,251.231151 L142.886021,251.231151 L136.363692,238.089809 C136.241406,238.094682 136.11568,238.034211 136.055701,237.934322 C135.955527,237.809199 135.979146,237.622225 136.075565,237.509283 L135.034469,235.411659 C135.019703,235.406331 135.005053,235.400068 134.990592,235.392857 C134.827419,235.311483 134.761179,235.133426 134.813466,234.966377 L131.934456,229.165679 L130.128048,232.831294 C130.067252,232.952794 129.976057,233.013545 129.854464,233.04392 C129.824066,232.98317 129.793668,232.98317 129.793668,232.98317 C129.702473,232.98317 129.611278,232.952794 129.520084,232.861669 L126.905836,230.006403 L124.048403,231.403661 C123.957209,231.434036 123.866014,231.464411 123.774819,231.434036 C123.683625,231.403661 123.622828,231.342911 123.562032,231.251785 L122.5553,229.038655 L111.537287,251.261905 L122.088514,251.261905 C122.301979,251.261905 122.454453,251.415675 122.454453,251.630952 C122.454453,251.84623 122.301979,252 122.088514,252 L110.957884,252 C110.835904,252 110.713925,251.938492 110.652935,251.815476 C110.63307,251.785425 110.619675,251.748848 110.611697,251.708935 Z M110.846222,250.995538 L117.029811,238.536443 L115.080928,237.752071 L112.953052,239.240454 C112.831459,239.27083 112.770663,239.301205 112.709866,239.301205 C112.588274,239.301205 112.497079,239.240454 112.436282,239.149329 L112.071822,238.698435 L105.905124,250.978364 L110.727269,250.978364 C110.769547,250.978364 110.809435,250.984325 110.846222,250.995538 Z M112.43471,237.975807 L112.801061,238.420325 L114.776946,237.053442 C114.86814,236.992692 115.020131,236.962317 115.111326,237.023067 L117.346027,237.89931 L118.625614,235.321117 C118.604494,235.297715 118.586021,235.270849 118.570884,235.240655 L117.685807,233.475109 C117.411128,232.896741 116.83125,232.561896 116.190332,232.561896 C115.549414,232.561896 115.000056,232.896741 114.694857,233.475109 L112.43471,237.975807 Z M143.568562,250.978364 L148.144671,250.978364 L141.2773,237.303164 L140.52424,238.238074 C140.402647,238.329199 140.281054,238.38995 140.18986,238.38995 C140.159461,238.38995 140.098665,238.38995 140.068267,238.359575 L137.545214,237.326819 L136.986327,237.716051 L143.568562,250.978364 Z M140.914643,236.580996 L139.354939,233.475109 C139.08026,232.896741 138.500381,232.561896 137.859463,232.561896 C137.218545,232.561896 136.669187,232.896741 136.363988,233.475109 L135.619033,234.96114 L136.669349,237.077384 L137.302028,236.62819 C137.393223,236.56744 137.545214,236.537064 137.636409,236.597815 L140.098665,237.600195 L140.914643,236.580996 Z M122.976124,228.189856 L124.078802,230.613906 L126.84504,229.277399 C126.997031,229.216649 127.149022,229.247024 127.270615,229.368525 L129.732871,232.041539 L131.46557,228.487645 C131.486443,228.445929 131.513687,228.410579 131.545479,228.381959 L128.705903,222.660714 C128.431449,222.076389 127.852046,221.738095 127.211654,221.738095 C126.571261,221.738095 126.022354,222.076389 125.717405,222.660714 L122.976124,228.189856 Z" id="Combined-Shape-Copy-6" fill="#FF5555" fill-rule="nonzero"></path>
                <g id="Group-2-Copy" transform="translate(89.000000, 20.000000)" fill-rule="nonzero">
                    <path d="M81.5476905,39.2569932 C81.5476905,32.910699 77.3624023,27.5350053 71.5773096,25.6829131 C71.6973011,24.9970465 71.7580312,24.3022957 71.7588401,23.6062094 C71.7588401,16.8748293 66.2493606,11.4180441 59.4529779,11.418044 C56.8629824,11.418044 54.4612852,12.2122672 52.4787802,13.5657192 C48.8281314,6.69081916 41.5505865,1.99999987 33.1631573,2 C21.115127,2 11.3481716,11.6735414 11.3481718,23.6063408 C11.3481718,24.1785811 11.377498,24.7438555 11.4215536,25.304793 C5.39773748,27.0654109 1,32.5817333 1,39.1184675 C1,47.0737109 7.51121509,53.5226509 15.5432796,53.5226509 L68.6823745,53.5226509 L68.6823745,53.4407708 C75.9138733,52.6801933 81.5476905,46.6209392 81.5476905,39.2569932 Z" id="Shape" fill="#FFFFFF"></path>
                    <path d="M59.6678641,11.3884727 C57.3794145,11.4933083 55.1666008,12.2321305 53.2811194,13.5209022 C49.8320386,7.02556788 43.1449988,2.48221173 35.3436958,2 C26.1219956,4.52290399 19.3480389,12.886759 19.348039,22.8227634 C19.348039,23.3950036 19.3773653,23.9602781 19.4214209,24.5212155 C13.3976048,26.2820963 9,31.7984186 9,38.3351529 C9,46.2903964 15.5112151,52.7393363 23.5432796,52.7393363 L72.5180525,52.7393363 C78.2310904,50.8463698 82.3500298,45.5076075 82.3500298,39.2123076 C82.3500298,32.8660134 78.1647415,27.4903197 72.3796488,25.6382274 C72.4996403,24.9523607 72.5603705,24.25761 72.5611793,23.5615236 C72.5611793,17.6396125 68.2964052,12.7060447 62.6432139,11.6046728 L59.6678641,11.3884727 Z" id="Shape" fill="#FFF0F0"></path>
                    <path d="M71.5649198,26.264869 C71.6849114,25.5790023 71.7456416,24.8842516 71.7464505,24.1881652 C71.7464505,17.4567851 66.236971,12 59.4405883,12 C58.2459101,12 57.0919702,12.1708572 56,12.4858916 C61.7923911,13.4759435 66.1998155,18.4728599 66.1998156,24.492554 C66.1989404,25.1886375 66.1382108,25.8833827 66.018285,26.5692577 C71.8032452,28.42135 75.9886661,33.7970438 75.988666,40.1433379 C75.988666,47.0175808 71.0784497,52.753389 64.542951,54.1047382 L68.6701176,54.1047382 L68.6701176,54.0228582 C75.9014837,53.2622808 81.5353009,47.2028953 81.5353009,39.8390805 C81.5351682,33.4926549 77.34988,28.1170926 71.5649198,26.264869 Z" id="Shape" fill="#FF8A80"></path>
                    <path d="M17.8389619,9.82047862 C17.4462542,9.82094522 17.0683478,9.67209406 16.7832183,9.40463846 C16.1655102,8.82700964 16.1375109,7.86271774 16.7208504,7.2509175 C17.2876352,6.65662003 17.885602,6.09227381 18.5122704,5.56021961 C19.1577124,5.01321362 20.1285295,5.08707657 20.6813485,5.72595106 C21.2340348,6.36495699 21.1591933,7.32675172 20.5140167,7.87428348 C19.9695919,8.33641856 19.4501128,8.82662499 18.9577369,9.34286702 C18.6673946,9.64824319 18.2624741,9.82110614 17.8389619,9.82047862 Z M82.0857906,40.3042975 C81.2363921,40.3042975 80.5475578,39.6221829 80.5475579,38.7807768 C80.5475579,33.2340945 76.9688313,28.3617723 71.6423419,26.6564859 L70.3736185,26.2503714 L70.5992047,24.9488337 C70.7043637,24.3481318 70.7577237,23.7396566 70.7587074,23.1299929 C70.7587074,17.2494818 65.9282425,12.4653483 59.991078,12.4653483 C57.7999722,12.4653483 55.6900773,13.115 53.8897664,14.3438577 L52.4624689,15.318401 L51.6555338,13.7985603 C48.1339998,7.16680313 41.254283,3.04717284 33.7012574,3.04717284 C30.3384301,3.04717284 27.0083791,3.87872172 24.0709809,5.4520538 C23.3238924,5.85277964 22.3904961,5.57691099 21.9861659,4.83657353 C21.5821011,4.09649896 21.8602357,3.1720299 22.6075896,2.77169839 C25.9929755,0.958509028 29.8291359,0 33.7012574,0 C41.8555365,0 49.3278818,4.16825894 53.5718225,10.9800734 C55.5443751,9.95414148 57.7342868,9.41804414 59.991078,9.41804414 C67.624651,9.41804414 73.8351729,15.5690354 73.8351729,23.1297301 C73.8351729,23.4822216 73.8207088,23.8381304 73.7923115,24.1950906 C79.7227084,26.6229717 83.6240234,32.3342026 83.6240234,38.7805139 C83.6241562,39.6221829 82.9353219,40.3042974 82.0857906,40.3042975 Z M80.6383232,46.5425574 C80.4124715,46.5425574 80.183037,46.4930087 79.9662089,46.388523 C79.2022677,46.0202599 78.8845892,45.1082767 79.2564084,44.3517735 C79.4848739,43.8870245 79.6844258,43.4088707 79.8539466,42.9199901 C80.1300906,42.1241897 81.0040383,41.7005953 81.8087177,41.9739668 C82.6119375,42.2473383 83.0397551,43.1139787 82.7638763,43.9097791 C82.5532346,44.5159331 82.3056976,45.1088869 82.0226265,45.6853799 C81.7648546,46.2099581 81.2273639,46.5427789 80.6383232,46.5425574 Z M69.3019511,54.5699551 L65.6313976,54.5699551 C64.781999,54.5699551 64.0931647,53.8878405 64.0931647,53.0464344 C64.0931647,52.2050283 64.781999,51.5229137 65.6313976,51.5229137 L69.1366097,51.5229137 C72.1289448,51.1885593 74.9522229,49.7502044 77.0943634,47.4671577 C77.6733239,46.850626 78.646264,46.8157974 79.2684839,47.3883006 C79.8907038,47.9610665 79.9263995,48.9250955 79.3482353,49.5414958 C76.6816732,52.3832455 73.1428886,54.1660749 69.3830295,54.5615437 L69.3019511,54.5699551 Z M60.9232801,54.5699551 L16.0815124,54.5699551 C7.21411533,54.5699551 0,47.4248377 0,38.6422511 C0,32.0408539 4.20253894,26.0858228 10.3585222,23.7574331 C10.3517242,23.5483537 10.3482736,23.3391807 10.3481718,23.1299929 C10.3481718,18.6924367 11.6207435,14.3809206 14.0285449,10.6616218 C14.4871485,9.95361584 15.4384589,9.74740433 16.1537,10.2014901 C16.8688084,10.6555761 17.0768785,11.5980507 16.6182749,12.3063197 C14.5289483,15.5338125 13.4246373,19.2765055 13.4246373,23.1298615 C13.4246373,23.6041874 13.4471959,24.1209647 13.4935075,24.7101593 L13.5902441,25.9403313 L12.3953006,26.2895371 C6.90864502,27.8932293 3.07659833,32.9728144 3.07659833,38.6421196 C3.07659833,45.7445227 8.91065658,51.5227823 16.0816451,51.5227823 L60.9232801,51.5227823 C61.7728113,51.5227823 62.4615129,52.2048969 62.4615127,53.046303 C62.4615126,53.8877091 61.7728112,54.5699551 60.9232801,54.5699551 Z" id="Shape" fill="#EC3D36"></path>
                </g>
                <g id="Group-2-Copy-2" transform="translate(199.000000, 0.000000)" fill-rule="nonzero">
                    <path d="M81.5476905,39.2569932 C81.5476905,32.910699 77.3624023,27.5350053 71.5773096,25.6829131 C71.6973011,24.9970465 71.7580312,24.3022957 71.7588401,23.6062094 C71.7588401,16.8748293 66.2493606,11.4180441 59.4529779,11.418044 C56.8629824,11.418044 54.4612852,12.2122672 52.4787802,13.5657192 C48.8281314,6.69081916 41.5505865,1.99999987 33.1631573,2 C21.115127,2 11.3481716,11.6735414 11.3481718,23.6063408 C11.3481718,24.1785811 11.377498,24.7438555 11.4215536,25.304793 C5.39773748,27.0654109 1,32.5817333 1,39.1184675 C1,47.0737109 7.51121509,53.5226509 15.5432796,53.5226509 L68.6823745,53.5226509 L68.6823745,53.4407708 C75.9138733,52.6801933 81.5476905,46.6209392 81.5476905,39.2569932 Z" id="Shape" fill="#FFFFFF"></path>
                    <path d="M59.6678641,11.3884727 C57.3794145,11.4933083 55.1666008,12.2321305 53.2811194,13.5209022 C49.8320386,7.02556788 43.1449988,2.48221173 35.3436958,2 C26.1219956,4.52290399 19.3480389,12.886759 19.348039,22.8227634 C19.348039,23.3950036 19.3773653,23.9602781 19.4214209,24.5212155 C13.3976048,26.2820963 9,31.7984186 9,38.3351529 C9,46.2903964 15.5112151,52.7393363 23.5432796,52.7393363 L72.5180525,52.7393363 C78.2310904,50.8463698 82.3500298,45.5076075 82.3500298,39.2123076 C82.3500298,32.8660134 78.1647415,27.4903197 72.3796488,25.6382274 C72.4996403,24.9523607 72.5603705,24.25761 72.5611793,23.5615236 C72.5611793,17.6396125 68.2964052,12.7060447 62.6432139,11.6046728 L59.6678641,11.3884727 Z" id="Shape" fill="#FFF0F0"></path>
                    <path d="M71.5649198,26.264869 C71.6849114,25.5790023 71.7456416,24.8842516 71.7464505,24.1881652 C71.7464505,17.4567851 66.236971,12 59.4405883,12 C58.2459101,12 57.0919702,12.1708572 56,12.4858916 C61.7923911,13.4759435 66.1998155,18.4728599 66.1998156,24.492554 C66.1989404,25.1886375 66.1382108,25.8833827 66.018285,26.5692577 C71.8032452,28.42135 75.9886661,33.7970438 75.988666,40.1433379 C75.988666,47.0175808 71.0784497,52.753389 64.542951,54.1047382 L68.6701176,54.1047382 L68.6701176,54.0228582 C75.9014837,53.2622808 81.5353009,47.2028953 81.5353009,39.8390805 C81.5351682,33.4926549 77.34988,28.1170926 71.5649198,26.264869 Z" id="Shape" fill="#FF8A80"></path>
                    <path d="M17.8389619,9.82047862 C17.4462542,9.82094522 17.0683478,9.67209406 16.7832183,9.40463846 C16.1655102,8.82700964 16.1375109,7.86271774 16.7208504,7.2509175 C17.2876352,6.65662003 17.885602,6.09227381 18.5122704,5.56021961 C19.1577124,5.01321362 20.1285295,5.08707657 20.6813485,5.72595106 C21.2340348,6.36495699 21.1591933,7.32675172 20.5140167,7.87428348 C19.9695919,8.33641856 19.4501128,8.82662499 18.9577369,9.34286702 C18.6673946,9.64824319 18.2624741,9.82110614 17.8389619,9.82047862 Z M82.0857906,40.3042975 C81.2363921,40.3042975 80.5475578,39.6221829 80.5475579,38.7807768 C80.5475579,33.2340945 76.9688313,28.3617723 71.6423419,26.6564859 L70.3736185,26.2503714 L70.5992047,24.9488337 C70.7043637,24.3481318 70.7577237,23.7396566 70.7587074,23.1299929 C70.7587074,17.2494818 65.9282425,12.4653483 59.991078,12.4653483 C57.7999722,12.4653483 55.6900773,13.115 53.8897664,14.3438577 L52.4624689,15.318401 L51.6555338,13.7985603 C48.1339998,7.16680313 41.254283,3.04717284 33.7012574,3.04717284 C30.3384301,3.04717284 27.0083791,3.87872172 24.0709809,5.4520538 C23.3238924,5.85277964 22.3904961,5.57691099 21.9861659,4.83657353 C21.5821011,4.09649896 21.8602357,3.1720299 22.6075896,2.77169839 C25.9929755,0.958509028 29.8291359,0 33.7012574,0 C41.8555365,0 49.3278818,4.16825894 53.5718225,10.9800734 C55.5443751,9.95414148 57.7342868,9.41804414 59.991078,9.41804414 C67.624651,9.41804414 73.8351729,15.5690354 73.8351729,23.1297301 C73.8351729,23.4822216 73.8207088,23.8381304 73.7923115,24.1950906 C79.7227084,26.6229717 83.6240234,32.3342026 83.6240234,38.7805139 C83.6241562,39.6221829 82.9353219,40.3042974 82.0857906,40.3042975 Z M80.6383232,46.5425574 C80.4124715,46.5425574 80.183037,46.4930087 79.9662089,46.388523 C79.2022677,46.0202599 78.8845892,45.1082767 79.2564084,44.3517735 C79.4848739,43.8870245 79.6844258,43.4088707 79.8539466,42.9199901 C80.1300906,42.1241897 81.0040383,41.7005953 81.8087177,41.9739668 C82.6119375,42.2473383 83.0397551,43.1139787 82.7638763,43.9097791 C82.5532346,44.5159331 82.3056976,45.1088869 82.0226265,45.6853799 C81.7648546,46.2099581 81.2273639,46.5427789 80.6383232,46.5425574 Z M69.3019511,54.5699551 L65.6313976,54.5699551 C64.781999,54.5699551 64.0931647,53.8878405 64.0931647,53.0464344 C64.0931647,52.2050283 64.781999,51.5229137 65.6313976,51.5229137 L69.1366097,51.5229137 C72.1289448,51.1885593 74.9522229,49.7502044 77.0943634,47.4671577 C77.6733239,46.850626 78.646264,46.8157974 79.2684839,47.3883006 C79.8907038,47.9610665 79.9263995,48.9250955 79.3482353,49.5414958 C76.6816732,52.3832455 73.1428886,54.1660749 69.3830295,54.5615437 L69.3019511,54.5699551 Z M60.9232801,54.5699551 L16.0815124,54.5699551 C7.21411533,54.5699551 0,47.4248377 0,38.6422511 C0,32.0408539 4.20253894,26.0858228 10.3585222,23.7574331 C10.3517242,23.5483537 10.3482736,23.3391807 10.3481718,23.1299929 C10.3481718,18.6924367 11.6207435,14.3809206 14.0285449,10.6616218 C14.4871485,9.95361584 15.4384589,9.74740433 16.1537,10.2014901 C16.8688084,10.6555761 17.0768785,11.5980507 16.6182749,12.3063197 C14.5289483,15.5338125 13.4246373,19.2765055 13.4246373,23.1298615 C13.4246373,23.6041874 13.4471959,24.1209647 13.4935075,24.7101593 L13.5902441,25.9403313 L12.3953006,26.2895371 C6.90864502,27.8932293 3.07659833,32.9728144 3.07659833,38.6421196 C3.07659833,45.7445227 8.91065658,51.5227823 16.0816451,51.5227823 L60.9232801,51.5227823 C61.7728113,51.5227823 62.4615129,52.2048969 62.4615127,53.046303 C62.4615126,53.8877091 61.7728112,54.5699551 60.9232801,54.5699551 Z" id="Shape" fill="#EC3D36"></path>
                </g>
                <text id="电商服务" font-family="PingFang-SC-Regular, PingFang SC" font-size="13" font-weight="normal" letter-spacing="2.058333" fill="#E50113">
                    <tspan x="102.383334" y="63">电商服务</tspan>
                </text>
                <text id="云服务" font-family="PingFang-SC-Regular, PingFang SC" font-size="13" font-weight="normal" letter-spacing="2.058333" fill="#E50113">
                    <tspan x="220.4125" y="43">云服务</tspan>
                </text>
                <g id="Group-2" transform="translate(28.000000, 43.000000)" fill-rule="nonzero">
                    <path d="M81.5476905,39.2569932 C81.5476905,32.910699 77.3624023,27.5350053 71.5773096,25.6829131 C71.6973011,24.9970465 71.7580312,24.3022957 71.7588401,23.6062094 C71.7588401,16.8748293 66.2493606,11.4180441 59.4529779,11.418044 C56.8629824,11.418044 54.4612852,12.2122672 52.4787802,13.5657192 C48.8281314,6.69081916 41.5505865,1.99999987 33.1631573,2 C21.115127,2 11.3481716,11.6735414 11.3481718,23.6063408 C11.3481718,24.1785811 11.377498,24.7438555 11.4215536,25.304793 C5.39773748,27.0654109 1,32.5817333 1,39.1184675 C1,47.0737109 7.51121509,53.5226509 15.5432796,53.5226509 L68.6823745,53.5226509 L68.6823745,53.4407708 C75.9138733,52.6801933 81.5476905,46.6209392 81.5476905,39.2569932 Z" id="Shape" fill="#FFFFFF"></path>
                    <path d="M59.6678641,11.3884727 C57.3794145,11.4933083 55.1666008,12.2321305 53.2811194,13.5209022 C49.8320386,7.02556788 43.1449988,2.48221173 35.3436958,2 C26.1219956,4.52290399 19.3480389,12.886759 19.348039,22.8227634 C19.348039,23.3950036 19.3773653,23.9602781 19.4214209,24.5212155 C13.3976048,26.2820963 9,31.7984186 9,38.3351529 C9,46.2903964 15.5112151,52.7393363 23.5432796,52.7393363 L72.5180525,52.7393363 C78.2310904,50.8463698 82.3500298,45.5076075 82.3500298,39.2123076 C82.3500298,32.8660134 78.1647415,27.4903197 72.3796488,25.6382274 C72.4996403,24.9523607 72.5603705,24.25761 72.5611793,23.5615236 C72.5611793,17.6396125 68.2964052,12.7060447 62.6432139,11.6046728 L59.6678641,11.3884727 Z" id="Shape" fill="#FFF0F0"></path>
                    <path d="M71.5649198,26.264869 C71.6849114,25.5790023 71.7456416,24.8842516 71.7464505,24.1881652 C71.7464505,17.4567851 66.236971,12 59.4405883,12 C58.2459101,12 57.0919702,12.1708572 56,12.4858916 C61.7923911,13.4759435 66.1998155,18.4728599 66.1998156,24.492554 C66.1989404,25.1886375 66.1382108,25.8833827 66.018285,26.5692577 C71.8032452,28.42135 75.9886661,33.7970438 75.988666,40.1433379 C75.988666,47.0175808 71.0784497,52.753389 64.542951,54.1047382 L68.6701176,54.1047382 L68.6701176,54.0228582 C75.9014837,53.2622808 81.5353009,47.2028953 81.5353009,39.8390805 C81.5351682,33.4926549 77.34988,28.1170926 71.5649198,26.264869 Z" id="Shape" fill="#FF8A80"></path>
                    <path d="M17.8389619,9.82047862 C17.4462542,9.82094522 17.0683478,9.67209406 16.7832183,9.40463846 C16.1655102,8.82700964 16.1375109,7.86271774 16.7208504,7.2509175 C17.2876352,6.65662003 17.885602,6.09227381 18.5122704,5.56021961 C19.1577124,5.01321362 20.1285295,5.08707657 20.6813485,5.72595106 C21.2340348,6.36495699 21.1591933,7.32675172 20.5140167,7.87428348 C19.9695919,8.33641856 19.4501128,8.82662499 18.9577369,9.34286702 C18.6673946,9.64824319 18.2624741,9.82110614 17.8389619,9.82047862 Z M82.0857906,40.3042975 C81.2363921,40.3042975 80.5475578,39.6221829 80.5475579,38.7807768 C80.5475579,33.2340945 76.9688313,28.3617723 71.6423419,26.6564859 L70.3736185,26.2503714 L70.5992047,24.9488337 C70.7043637,24.3481318 70.7577237,23.7396566 70.7587074,23.1299929 C70.7587074,17.2494818 65.9282425,12.4653483 59.991078,12.4653483 C57.7999722,12.4653483 55.6900773,13.115 53.8897664,14.3438577 L52.4624689,15.318401 L51.6555338,13.7985603 C48.1339998,7.16680313 41.254283,3.04717284 33.7012574,3.04717284 C30.3384301,3.04717284 27.0083791,3.87872172 24.0709809,5.4520538 C23.3238924,5.85277964 22.3904961,5.57691099 21.9861659,4.83657353 C21.5821011,4.09649896 21.8602357,3.1720299 22.6075896,2.77169839 C25.9929755,0.958509028 29.8291359,0 33.7012574,0 C41.8555365,0 49.3278818,4.16825894 53.5718225,10.9800734 C55.5443751,9.95414148 57.7342868,9.41804414 59.991078,9.41804414 C67.624651,9.41804414 73.8351729,15.5690354 73.8351729,23.1297301 C73.8351729,23.4822216 73.8207088,23.8381304 73.7923115,24.1950906 C79.7227084,26.6229717 83.6240234,32.3342026 83.6240234,38.7805139 C83.6241562,39.6221829 82.9353219,40.3042974 82.0857906,40.3042975 Z M80.6383232,46.5425574 C80.4124715,46.5425574 80.183037,46.4930087 79.9662089,46.388523 C79.2022677,46.0202599 78.8845892,45.1082767 79.2564084,44.3517735 C79.4848739,43.8870245 79.6844258,43.4088707 79.8539466,42.9199901 C80.1300906,42.1241897 81.0040383,41.7005953 81.8087177,41.9739668 C82.6119375,42.2473383 83.0397551,43.1139787 82.7638763,43.9097791 C82.5532346,44.5159331 82.3056976,45.1088869 82.0226265,45.6853799 C81.7648546,46.2099581 81.2273639,46.5427789 80.6383232,46.5425574 Z M69.3019511,54.5699551 L65.6313976,54.5699551 C64.781999,54.5699551 64.0931647,53.8878405 64.0931647,53.0464344 C64.0931647,52.2050283 64.781999,51.5229137 65.6313976,51.5229137 L69.1366097,51.5229137 C72.1289448,51.1885593 74.9522229,49.7502044 77.0943634,47.4671577 C77.6733239,46.850626 78.646264,46.8157974 79.2684839,47.3883006 C79.8907038,47.9610665 79.9263995,48.9250955 79.3482353,49.5414958 C76.6816732,52.3832455 73.1428886,54.1660749 69.3830295,54.5615437 L69.3019511,54.5699551 Z M60.9232801,54.5699551 L16.0815124,54.5699551 C7.21411533,54.5699551 0,47.4248377 0,38.6422511 C0,32.0408539 4.20253894,26.0858228 10.3585222,23.7574331 C10.3517242,23.5483537 10.3482736,23.3391807 10.3481718,23.1299929 C10.3481718,18.6924367 11.6207435,14.3809206 14.0285449,10.6616218 C14.4871485,9.95361584 15.4384589,9.74740433 16.1537,10.2014901 C16.8688084,10.6555761 17.0768785,11.5980507 16.6182749,12.3063197 C14.5289483,15.5338125 13.4246373,19.2765055 13.4246373,23.1298615 C13.4246373,23.6041874 13.4471959,24.1209647 13.4935075,24.7101593 L13.5902441,25.9403313 L12.3953006,26.2895371 C6.90864502,27.8932293 3.07659833,32.9728144 3.07659833,38.6421196 C3.07659833,45.7445227 8.91065658,51.5227823 16.0816451,51.5227823 L60.9232801,51.5227823 C61.7728113,51.5227823 62.4615129,52.2048969 62.4615127,53.046303 C62.4615126,53.8877091 61.7728112,54.5699551 60.9232801,54.5699551 Z" id="Shape" fill="#EC3D36"></path>
                </g>
                <text id="金融服务" font-family="PingFang-SC-Regular, PingFang SC" font-size="13" font-weight="normal" letter-spacing="2.058333" fill="#E50113">
                    <tspan x="41.383334" y="86">金融服务</tspan>
                </text>
                <rect id="Rectangle-7" fill="#EC3D36" x="0" y="250" width="500" height="2" rx="1"></rect>
                <g id="Group-3" transform="translate(126.000000, 101.000000)">
                    <polygon id="Clip-3" points="0 0 195 0 195 129 0 129"></polygon>
                    <path d="M4.80217937,0 C2.16047237,0 0,2.16286409 0,4.80749556 L0,124.190808 C0,126.837136 2.16047237,129 4.80217937,129 L190.196126,129 C192.837833,129 195,126.837136 195,124.190808 L195,4.80749556 C195,2.16286409 192.837833,0 190.196126,0 L4.80217937,0 Z" id="Fill-2" fill="#EC3D36"></path>
                    <path d="M193.168258,124.986403 C193.168258,126.180643 192.190539,127.159445 190.997619,127.159445 L4.00238097,127.159445 C2.80946133,127.159445 1.83174167,126.180643 1.83174167,124.986403 L1.83174167,4.01359721 C1.83174167,2.8176606 2.80946133,1.84055493 4.00238097,1.84055493 L190.997619,1.84055493 C192.190539,1.84055493 193.168258,2.8176606 193.168258,4.01359721 L193.168258,124.986403 Z" id="Path" fill="#FFFFFF"></path>
                    <path d="M7.85396104,118.25835 L186.146039,118.25835 L186.146039,7.74334768 L7.85396104,7.74334768 L7.85396104,118.25835 Z M6,120 L188,120 L188,6 L6,6 L6,120 Z" id="Fill-1" fill="#EC3D36"></path>
                    <path d="M99,3.5 C99,4.32817337 98.3278265,5 97.4992256,5 C96.6706247,5 96,4.32817337 96,3.5 C96,2.67182663 96.6706247,2 97.4992256,2 C98.3278265,2 99,2.67182663 99,3.5" id="Fill-5" fill="#EC3D36"></path>
                    <path d="M97.5,124.125455 C97.1563636,124.125455 96.8745455,123.845455 96.8745455,123.5 C96.8745455,123.156364 97.1563636,122.876364 97.5,122.876364 C97.8454545,122.876364 98.1254545,123.156364 98.1254545,123.5 C98.1254545,123.845455 97.8454545,124.125455 97.5,124.125455 M97.5,121 C96.12,121 95,122.118182 95,123.5 C95,124.881818 96.12,126 97.5,126 C98.8818182,126 100,124.881818 100,123.5 C100,122.118182 98.8818182,121 97.5,121" id="Fill-7" fill="#EC3D36"></path>
                    <path d="M64.96356,148.64507 L132.03644,148.64507 L132.03644,146.35493 L64.96356,146.35493 L64.96356,148.64507 Z M63,150 L134,150 L134,145 L63,145 L63,150 Z" id="Fill-9" fill="#EC3D36"></path>
                    <polygon id="Fill-11" fill="#EC3D36" points="78.0983773 129 75 145 76.5483435 145 80 129"></polygon>
                    <polygon id="Fill-12" fill="#EC3D36" points="117 129 120.235571 145 122 145 118.861669 129"></polygon>
                </g>
                <rect id="Rectangle-9" fill="#EC3D36" opacity="0.402120536" x="133" y="108" width="181" height="8"></rect>
                <rect id="Rectangle-13" fill="#EC3D36" x="133" y="116" width="180" height="2"></rect>
                <rect id="Rectangle-13-Copy" fill="#EC3D36" x="136" y="121" width="14" height="2"></rect>
                <rect id="Rectangle-13-Copy-2" fill="#EC3D36" x="136" y="126" width="14" height="2"></rect>
                <rect id="Rectangle-13-Copy-3" fill="#EC3D36" x="136" y="131" width="14" height="2"></rect>
                <rect id="Rectangle-13-Copy-4" fill="#EC3D36" x="136" y="136" width="14" height="2"></rect>
                <rect id="Rectangle-13-Copy-5" fill="#EC3D36" x="136" y="141" width="14" height="2"></rect>
                <rect id="Rectangle-13-Copy-6" fill="#EC3D36" x="154" y="116" width="2" height="105"></rect>
                <path d="M174,128 L197,128 L197,148 L174,148 L174,128 Z M180,134 L180,142 L192,142 L192,134 L180,134 Z" id="Combined-Shape" fill="#C6CBE2"></path>
                <path d="M172,184 L186,184 L186,196 L172,196 L172,184 Z M176,188 L176,192 L182,192 L182,188 L176,188 Z" id="Combined-Shape-Copy-4" fill="#C6CBE2"></path>
                <path d="M194,184 L208,184 L208,196 L194,196 L194,184 Z M198,188 L198,192 L204,192 L204,188 L198,188 Z" id="Combined-Shape-Copy-5" fill="#C6CBE2"></path>
                <path d="M206,128 L229,128 L229,148 L206,148 L206,128 Z M212,134 L212,142 L224,142 L224,134 L212,134 Z" id="Combined-Shape-Copy" fill="#C6CBE2"></path>
                <path d="M238,128 L261,128 L261,148 L238,148 L238,128 Z M244,134 L244,142 L256,142 L256,134 L244,134 Z" id="Combined-Shape-Copy-2" fill="#C6CBE2"></path>
                <path d="M268,128 L291,128 L291,148 L268,148 L268,128 Z M274,134 L274,142 L286,142 L286,134 L274,134 Z" id="Combined-Shape-Copy-3" fill="#C6CBE2"></path>
                <rect id="Rectangle-2" fill="#C6CBE2" x="172" y="155" width="121" height="4" rx="2"></rect>
                <rect id="Rectangle-2-Copy" fill="#C6CBE2" x="172" y="165" width="121" height="4" rx="2"></rect>
                <rect id="Rectangle-2-Copy-2" fill="#C6CBE2" x="172" y="174" width="121" height="4" rx="2"></rect>
                <rect id="Rectangle-2-Copy-3" fill="#C6CBE2" x="218" y="190" width="35" height="4" rx="2"></rect>
                <circle id="Oval-2" stroke="#EC3D36" stroke-width="2" fill="#FFFFFF" cx="287" cy="205" r="45"></circle>
                <circle id="Oval-2-Copy" stroke="#EC3D36" stroke-width="2" fill="#FFFFFF" cx="287" cy="205" r="39"></circle>
                <text id="友企连-网关服务" font-family="PingFang-SC-Semibold, PingFang SC" font-size="13" font-weight="500" fill="#485B74">
                    <tspan x="269.5" y="192">友企连</tspan>
                    <tspan x="308.5" y="192" font-family="HelveticaNeue-Bold, Helvetica Neue" font-weight="bold"></tspan>
                    <tspan x="263" y="210">网关服务</tspan>
                </text>
                <text id="UBlinker-Gateway" font-family="PingFang-SC-Medium, PingFang SC" font-size="7" font-weight="400" fill="#485B74">
                    <tspan x="257.022" y="223">UBlinker-Gateway</tspan>
                </text>
                <g id="Group-4" transform="translate(344.000000, 164.000000)">
                    <polygon id="Path-3" fill="#EC3D36" points="0 0 80.8681641 0 80.8681641 54.9306641 29.2978516 54.9306641 22.8115234 64.9628906 16.9160156 54.9306641 0 54.9306641"></polygon>
                    <polygon id="Path-2" fill="#FFFFFF" points="2 2 79.2353516 2 79.2353516 53.21875 27.7666016 53.21875 22.8525391 60.6679688 17.9628906 53.21875 2 53.21875"></polygon>
                </g>
                <g id="Group-4-Copy" transform="translate(333.000000, 71.000000)">
                    <polygon id="Path-3" fill="#EC3D36" points="0 0 100.868164 0 100.868164 64.9306641 29.2978516 64.9306641 22.8115234 74.9628906 16.9160156 64.9306641 0 64.9306641"></polygon>
                    <polygon id="Path-2" fill="#FFFFFF" points="2 2 99.2353516 2 99.2353516 63.21875 27.7666016 63.21875 22.8525391 70.6679688 17.9628906 63.21875 2 63.21875"></polygon>
                </g>
                <rect id="Rectangle-17" fill="#FFAF66" opacity="0" x="356" y="175" width="9" height="9"></rect>
                <rect id="Rectangle-17-Copy" fill="#FFAF66" opacity="0" x="345" y="82" width="9" height="9"></rect>
                <rect id="Rectangle-18" stroke="#EC3D36" stroke-width="2" fill="#FFCD7C" x="355" y="175" width="11" height="11"></rect>
                <rect id="Rectangle-18-Copy-2" stroke="#EC3D36" stroke-width="2" fill="#B8E986" x="362" y="115" width="11" height="11"></rect>
                <rect id="Rectangle-18-Copy" stroke="#EC3D36" stroke-width="2" fill="#8ED7FF" x="355" y="192" width="11" height="11"></rect>
                <rect id="Rectangle-18-Copy-3" stroke="#EC3D36" stroke-width="2" fill="#8ED7FF" x="344" y="115" width="11" height="11"></rect>
                <rect id="Rectangle-3" fill="#EC3D36" x="372" y="201" width="42" height="2" rx="1"></rect>
                <rect id="Rectangle-3-Copy-2" fill="#EC3D36" x="376" y="114" width="42" height="2" rx="1"></rect>
                <rect id="Rectangle-3-Copy" fill="#EC3D36" x="354" y="208" width="60" height="2" rx="1"></rect>
                <rect id="Rectangle-3-Copy-3" fill="#EC3D36" x="376" y="122" width="51" height="2" rx="1"></rect>
                <rect id="Rectangle-19" stroke="#EC3D36" stroke-width="2" fill="#FFFFFF" x="373" y="175" width="40" height="20"></rect>
                <rect id="Rectangle-19-Copy" stroke="#EC3D36" stroke-width="2" fill="#FFFFFF" x="343" y="83" width="82" height="20"></rect>
                <text id="ERP" font-family="PingFang-SC-Medium, PingFang SC" font-size="12" font-weight="400" fill="#6B7C93">
                    <tspan x="381.09" y="190">ERP</tspan>
                </text>
                <text id="企业其他系统" font-family="PingFang-SC-Medium, PingFang SC" font-size="12" font-weight="400" fill="#6B7C93">
                    <tspan x="348" y="97">企业其他系统</tspan>
                </text>
                <rect id="Rectangle-20" stroke="#EC3D36" stroke-width="2" fill="#F5D3AB" x="69" y="138" width="35" height="112"></rect>
                <rect id="Rectangle-13-Copy-7" fill="#EC3D36" x="68" y="145" width="36" height="2"></rect>
                <rect id="Rectangle-13-Copy-11" fill="#EC3D36" x="68" y="181" width="36" height="2"></rect>
                <rect id="Rectangle-13-Copy-15" fill="#EC3D36" x="68" y="216" width="36" height="2"></rect>
                <rect id="Rectangle-13-Copy-9" fill="#EC3D36" x="68" y="163" width="36" height="2"></rect>
                <rect id="Rectangle-13-Copy-12" fill="#EC3D36" x="68" y="199" width="36" height="2"></rect>
                <rect id="Rectangle-13-Copy-16" fill="#EC3D36" x="68" y="234" width="36" height="2"></rect>
                <rect id="Rectangle-13-Copy-8" fill="#EC3D36" x="69" y="154" width="36" height="2"></rect>
                <rect id="Rectangle-13-Copy-13" fill="#EC3D36" x="69" y="190" width="36" height="2"></rect>
                <rect id="Rectangle-13-Copy-17" fill="#EC3D36" x="69" y="225" width="36" height="2"></rect>
                <rect id="Rectangle-13-Copy-10" fill="#EC3D36" x="69" y="172" width="36" height="2"></rect>
                <rect id="Rectangle-13-Copy-14" fill="#EC3D36" x="69" y="208" width="36" height="2"></rect>
                <rect id="Rectangle-13-Copy-18" fill="#EC3D36" x="69" y="243" width="36" height="2"></rect>
                <rect id="Rectangle-20-Copy" stroke="#EC3D36" stroke-width="2" fill="#FFFFFF" x="77" y="147" width="19" height="97"></rect>
                <text id="企-业-防-火-墙" font-family="PingFang-SC-Medium, PingFang SC" font-size="12" font-weight="400" fill="#6B7C93">
                    <tspan x="80" y="162">企</tspan>
                    <tspan x="80" y="179">业</tspan>
                    <tspan x="80" y="196">防</tspan>
                    <tspan x="80" y="213">火</tspan>
                    <tspan x="80" y="230">墙</tspan>
                </text>
                <path d="M355.460487,42.7087816 C355.460487,37.0107081 350.823427,32.3747762 345.124182,32.3747763 C344.707317,32.3747763 344.300039,32.4057516 343.897576,32.4534293 C342.406639,28.0699421 338.231649,25 333.51047,25 C327.45874,25 322.535874,29.9216511 322.535874,35.9746829 C317.828447,35.9746829 314,39.8044318 314,44.5105136 C314,49.2155544 317.828447,53.0464312 322.535874,53.0464312 L345.705252,53.0464312 L345.705252,53.0166705 C351.13305,52.7129474 355.460487,48.2116324 355.460487,42.7087816 Z M345.124182,50.6076224 L322.535874,50.6076224 C319.174183,50.6076224 316.438722,47.872292 316.438722,44.5105136 C316.438722,41.1488655 319.174183,38.4134917 322.535874,38.4134917 L324.974596,38.4134917 L324.974596,35.9746829 C324.974596,31.2685576 328.80313,27.4388521 333.51047,27.4388521 C337.109856,27.4388521 340.29177,29.7382719 341.506358,33.0404423 C337.588586,34.509992 334.787747,38.2836903 334.787747,42.7087816 L337.2266,42.7087816 C337.2266,38.3551418 340.770499,34.8136718 345.124226,34.8136718 C349.477865,34.8136718 353.021765,38.3551418 353.021765,42.7087816 C353.021721,47.0648942 349.477822,50.6076224 345.124182,50.6076224 Z" id="Shape" fill="#FF8A80" fill-rule="nonzero"></path>
                <path d="M369.5,38 C370.9,37.7 372,36.5 372,35 C372,33.3 370.7,32 369,32 C368.6,32 368.3,32.1 368,32.2 L368,32 C368,29.8 366.2,28 364,28 C361.8,28 360,29.8 360,32 C360,32.4 360.1,32.7 360.1,33.1 C359.9,33 359.7,33 359.5,33 C358.1,33 357,34.1 357,35.5 C357,36.9 358.1,38 359.5,38 L369.5,38 Z M369.5,40 L359.5,40 C357,40 355,38 355,35.5 C355,33.5 356.3,31.8 358,31.2 C358.4,28.3 360.9,26 364,26 C366.6,26 368.9,27.7 369.7,30 C372.1,30.3 374,32.4 374,35 C374,37.6 372,39.7 369.5,40 Z" id="Shape" fill="#FF8A80" fill-rule="nonzero"></path>
            </g>
        </g>
    </g>
</svg>