<svg id="图层_1" data-name="图层 1" xmlns="http://www.w3.org/2000/svg" viewBox="0 0 147 119.5"><defs><style>.cls-1{font-size:11px;font-family:Hiragino Sans GB;}.cls-1,.cls-14{fill:#4d4d4d;}.cls-2{fill:#ddd;}.cls-15,.cls-3{fill:#fff;}.cls-4{fill:#ccc;}.cls-11,.cls-5{fill:#a2c9eb;}.cls-10,.cls-6{fill:#5896cc;}.cls-7{fill:#91bde3;}.cls-18,.cls-8{fill:#ffd47f;}.cls-9{fill:#fa9891;}.cls-10,.cls-11,.cls-12,.cls-14,.cls-15,.cls-16,.cls-17,.cls-18{fill-rule:evenodd;}.cls-12,.cls-13{fill:#ffd7b7;}.cls-16{fill:#4a301b;}.cls-17{fill:#666;}.cls-19{fill:#ed7b5c;}</style></defs><title>no_date</title><text class="cls-1" transform="translate(29.71 108.27)">当前暂时没有数据</text><rect class="cls-2" x="40.75" y="6.58" width="69.15" height="69.15" rx="9.55" ry="9.55"/><rect class="cls-3" x="53.96" y="12.27" width="42.73" height="58.52"/><rect class="cls-4" x="56.55" y="51.53" width="10.73" height="1.81"/><rect class="cls-4" x="56.55" y="54.64" width="10.73" height="1.81"/><rect class="cls-4" x="56.55" y="57.76" width="10.73" height="1.81"/><rect class="cls-4" x="56.55" y="60.88" width="6.79" height="1.81"/><rect class="cls-4" x="69.96" y="51.53" width="10.73" height="1.81"/><rect class="cls-4" x="69.96" y="54.64" width="10.73" height="1.81"/><rect class="cls-4" x="69.96" y="57.76" width="10.73" height="1.81"/><rect class="cls-4" x="69.96" y="60.88" width="6.79" height="1.81"/><rect class="cls-5" x="53.96" y="12.27" width="42.73" height="2.84"/><rect class="cls-6" x="53.62" y="25.15" width="42.73" height="11.93" transform="translate(-1.5 3.88) rotate(-2.94)"/><path class="cls-3" d="M57.49,31.68a0.19,0.19,0,1,1,.3.24l-0.41.51,0.41,0.51a0.19,0.19,0,1,1-.3.24L57,32.55v0h0v0h0v0h0v0h0v0h0v0h0v0h0v0Z"/><path class="cls-3" d="M93.13,31.68a0.19,0.19,0,1,0-.3.24l0.41,0.51-0.41.51a0.19,0.19,0,0,0,.3.24l0.5-.63v0h0v0h0v0h0v0h0v0h0v0h0v0h0v0Z"/><rect class="cls-7" x="62.16" y="22.86" width="26.31" height="1.81"/><rect class="cls-8" x="56.55" y="40.56" width="10.73" height="9.64"/><rect class="cls-9" x="69.96" y="40.56" width="10.73" height="9.64"/><rect class="cls-5" x="83.37" y="40.56" width="10.73" height="9.64"/><rect class="cls-5" x="53.96" y="65.58" width="42.73" height="5.2"/><rect class="cls-5" x="69.96" y="57.76" width="10.73" height="1.81"/><rect class="cls-5" x="69.96" y="60.88" width="6.79" height="1.81"/><rect class="cls-4" x="83.37" y="51.53" width="10.73" height="1.81"/><rect class="cls-4" x="83.37" y="54.64" width="10.73" height="1.81"/><rect class="cls-4" x="83.37" y="57.76" width="10.73" height="1.81"/><rect class="cls-4" x="83.37" y="60.88" width="6.79" height="1.81"/><path class="cls-10" d="M88.17,13.35c-0.55-1.23-1.33-2.07-1.74-1.88s-0.31,1.33.24,2.55a12.49,12.49,0,0,0,.66,1.69,1.72,1.72,0,0,0,1.44-.21A4.29,4.29,0,0,0,88.17,13.35Z"/><path class="cls-10" d="M62.48,13.35c0.55-1.23,1.33-2.07,1.74-1.88S64.53,12.79,64,14a12.54,12.54,0,0,1-.66,1.69,1.72,1.72,0,0,1-1.44-.21A4.28,4.28,0,0,1,62.48,13.35Z"/><path class="cls-10" d="M61.06,11.14c1.72,0,3.12.38,3.12,0.85s-1.4.85-3.12,0.85-2.92-.21-2.92-0.68S59.34,11.14,61.06,11.14Z"/><path class="cls-10" d="M89.38,11.14c-1.72,0-3.12.43-3.12,1s1.4,1,3.12,1,3-.45,3-1S91.11,11.14,89.38,11.14Z"/><path class="cls-6" d="M65.54,8.28a0.3,0.3,0,0,0,.59.07,0.31,0.31,0,0,0,0-.07V7.69a0.3,0.3,0,0,0-.59-0.07,0.31,0.31,0,0,0,0,.07v0.6Z"/><path class="cls-6" d="M65.54,10.67a0.3,0.3,0,0,0,.59.07,0.31,0.31,0,0,0,0-.07v-0.6A0.3,0.3,0,0,0,65.55,10a0.31,0.31,0,0,0,0,.07v0.6Z"/><path class="cls-6" d="M65.54,13.06a0.3,0.3,0,0,0,.59.07,0.31,0.31,0,0,0,0-.07v-0.6a0.3,0.3,0,0,0-.59-0.07,0.31,0.31,0,0,0,0,.07v0.6Z"/><path class="cls-6" d="M65.54,15.45a0.3,0.3,0,0,0,.59.07,0.31,0.31,0,0,0,0-.07v-0.6a0.3,0.3,0,0,0-.59-0.07,0.31,0.31,0,0,0,0,.07v0.6Z"/><path class="cls-6" d="M65.54,17.84a0.3,0.3,0,0,0,.59.07,0.31,0.31,0,0,0,0-.07v-0.6a0.3,0.3,0,0,0-.59-0.07,0.31,0.31,0,0,0,0,.07v0.6Z"/><path class="cls-6" d="M66.13,5.3a0.3,0.3,0,0,0-.59-0.07,0.31,0.31,0,0,0,0,.07v0.6a0.3,0.3,0,0,0,.59.07,0.31,0.31,0,0,0,0-.07V5.3Z"/><path class="cls-6" d="M65.54,20a0.3,0.3,0,0,0,.59.07,0.3,0.3,0,0,0,0-.07v-0.6a0.3,0.3,0,0,0-.59-0.07,0.31,0.31,0,0,0,0,.07V20Z"/><path class="cls-11" d="M61.16,4.73a11.3,11.3,0,0,1-.08,2.38c-0.28,1.6-.23,3.18-0.47,4.2a1.18,1.18,0,0,1-1.37,1.14c-1.73,0-2.49-1.93-1.66-4S60.46,4.43,61.16,4.73Z"/><path class="cls-11" d="M61.12,10.86c1.81,0,3.28.39,3.28,0.87s-1.47.87-3.28,0.87-3.07-.22-3.07-0.7S59.31,10.86,61.12,10.86Z"/><path class="cls-10" d="M63,15.67c-0.64-.43-1.31-0.52-1.51-0.19a1.34,1.34,0,0,0,.81,1.38c0.64,0.43,1.31.52,1.51,0.19A1.34,1.34,0,0,0,63,15.67Z"/><path class="cls-11" d="M62.37,13.23c0.63-1.19,1.46-2,1.86-1.77s0.22,1.35-.41,2.53A12.61,12.61,0,0,1,63,15.64a1.72,1.72,0,0,1-1.43-.3A4.29,4.29,0,0,1,62.37,13.23Z"/><path class="cls-12" d="M61.23,4.68c0,0.27,0,.67,0,1.14a1.54,1.54,0,0,1-1.06-.77A1.32,1.32,0,0,1,61.23,4.68Z"/><ellipse class="cls-5" cx="61.12" cy="7.08" rx="0.48" ry="1.97" transform="translate(13.74 46.33) rotate(-46.25)"/><path class="cls-12" d="M65.78,8.66a0.71,0.71,0,0,0,.85-0.35,0.81,0.81,0,0,0-.84-0.49,0.71,0.71,0,0,0-.85.35A0.81,0.81,0,0,0,65.78,8.66Z"/><circle class="cls-13" cx="61.85" cy="3.49" r="1.93"/><path class="cls-14" d="M61.85,1.56a1.93,1.93,0,0,1,1.93,1.93c0,0.05,0,.1,0,0.16a2.68,2.68,0,0,1-2.09-.16C61.08,2.8,61,3.87,61.09,4s-1.27,1.55-1.27-.48A2.07,2.07,0,0,1,61.85,1.56Z"/><path class="cls-11" d="M61.85,1.43a2.1,2.1,0,0,1,2.1,2L60.26,2.16A2.09,2.09,0,0,1,61.85,1.43Z"/><polygon class="cls-11" points="60.16 2.1 64.41 3.61 64.35 3.78 60.1 2.27 60.16 2.1"/><path class="cls-15" d="M61.86,1.64a1.89,1.89,0,0,1,1.86,1.54A2.09,2.09,0,0,0,60.63,2.1,1.88,1.88,0,0,1,61.86,1.64Z"/><path class="cls-11" d="M63.81,8.66c-0.95,0-1.72-.12-1.73-0.35s0.95-.46,1.7-0.49a4.56,4.56,0,0,1,1.32.06,0.78,0.78,0,0,1,0,.65A5.73,5.73,0,0,1,63.81,8.66Z"/><ellipse class="cls-5" cx="61.33" cy="6.32" rx="0.48" ry="1.97" transform="translate(48.46 66.62) rotate(-83.83)"/><path class="cls-12" d="M66,4.73a0.71,0.71,0,0,0,.46-0.8,0.81,0.81,0,0,0-1,.12,0.71,0.71,0,0,0-.46.8A0.81,0.81,0,0,0,66,4.73Z"/><path class="cls-11" d="M64.42,5.93c-0.73.61-1.44,1-1.59,0.78s0.47-.94,1-1.42A4.58,4.58,0,0,1,65,4.53a0.78,0.78,0,0,1,.42.49A5.7,5.7,0,0,1,64.42,5.93Z"/><path class="cls-11" d="M89.43,4.68c0,0.49.07,1.38,0,2.44-0.16,2.73-.66,5.37,2,5.34,1.73,0,2.49-1.93,1.66-4S90.13,4.38,89.43,4.68Z"/><path class="cls-11" d="M89.55,10.86c-1.81,0-3.28.39-3.28,0.87s1.47,0.87,3.28.87,3.07-.22,3.07-0.7S91.36,10.86,89.55,10.86Z"/><path class="cls-10" d="M87.62,15.67c0.64-.43,1.31-0.52,1.51-0.19a1.34,1.34,0,0,1-.81,1.38c-0.64.43-1.31,0.52-1.51,0.19A1.34,1.34,0,0,1,87.62,15.67Z"/><path class="cls-11" d="M88.3,13.23c-0.63-1.19-1.46-2-1.86-1.77s-0.22,1.35.41,2.53a12.62,12.62,0,0,0,.77,1.64,1.72,1.72,0,0,0,1.43-.3A4.28,4.28,0,0,0,88.3,13.23Z"/><path class="cls-12" d="M89.43,4.68c0,0.27,0,.67,0,1.14a1.54,1.54,0,0,0,1.06-.77A1.33,1.33,0,0,0,89.43,4.68Z"/><circle class="cls-13" cx="88.82" cy="3.49" r="1.93"/><path class="cls-14" d="M88.82,1.56a1.93,1.93,0,0,0-1.93,1.93c0,0.05,0,.1,0,0.16A2.68,2.68,0,0,0,89,3.49c0.61-.69.7,0.38,0.6,0.54s1.27,1.55,1.27-.48A2.07,2.07,0,0,0,88.82,1.56Z"/><path class="cls-11" d="M88.81,1.43a2.1,2.1,0,0,0-2.1,2l3.69-1.31A2.09,2.09,0,0,0,88.81,1.43Z"/><polygon class="cls-11" points="90.5 2.1 86.26 3.61 86.32 3.78 90.56 2.27 90.5 2.1"/><path class="cls-15" d="M88.8,1.64a1.89,1.89,0,0,0-1.86,1.54A2.09,2.09,0,0,1,90,2.1,1.88,1.88,0,0,0,88.8,1.64Z"/><ellipse class="cls-5" cx="89.55" cy="7.08" rx="1.97" ry="0.48" transform="translate(19.95 63.87) rotate(-43.73)"/><path class="cls-12" d="M84.89,8.66A0.71,0.71,0,0,1,84,8.31a0.81,0.81,0,0,1,.84-0.49,0.71,0.71,0,0,1,.85.35A0.81,0.81,0,0,1,84.89,8.66Z"/><path class="cls-11" d="M86.86,8.66c0.95,0,1.72-.12,1.73-0.35s-0.95-.46-1.7-0.49a4.56,4.56,0,0,0-1.32.06,0.78,0.78,0,0,0,0,.65A5.73,5.73,0,0,0,86.86,8.66Z"/><ellipse class="cls-5" cx="89.93" cy="7.37" rx="1.97" ry="0.48" transform="translate(48.02 87.28) rotate(-67.01)"/><path class="cls-12" d="M86.27,10.66a0.71,0.71,0,0,1-.92,0,0.81,0.81,0,0,1,.58-0.78,0.71,0.71,0,0,1,.92,0A0.81,0.81,0,0,1,86.27,10.66Z"/><path class="cls-11" d="M88.08,9.88c0.89-.34,1.54-0.79,1.45-1s-1.05,0-1.75.22a4.57,4.57,0,0,0-1.19.57,0.78,0.78,0,0,0,.23.61A5.73,5.73,0,0,0,88.08,9.88Z"/><path class="cls-6" d="M84.6,9.8a0.3,0.3,0,1,0,.6,0V9.2a0.3,0.3,0,0,0-.59-0.07,0.32,0.32,0,0,0,0,.07V9.8Z"/><path class="cls-6" d="M84.6,12.19a0.3,0.3,0,0,0,.59.07,0.3,0.3,0,0,0,0-.07v-0.6a0.3,0.3,0,0,0-.59-0.07,0.32,0.32,0,0,0,0,.07v0.6Z"/><path class="cls-6" d="M84.6,14.58a0.3,0.3,0,1,0,.6,0V14a0.3,0.3,0,0,0-.59-0.08,0.32,0.32,0,0,0,0,.08v0.6Z"/><path class="cls-6" d="M84.6,17a0.3,0.3,0,1,0,.6,0v-0.6a0.3,0.3,0,0,0-.59-0.07,0.32,0.32,0,0,0,0,.07V17Z"/><polygon class="cls-10" points="36.88 68.56 59.59 68.56 59.59 54.65 32.92 54.65 36.88 68.56"/><rect class="cls-6" x="71.12" y="58.75" width="0.51" height="2.19" transform="translate(-17.22 31.09) rotate(-22)"/><path class="cls-11" d="M66,57.56a11.3,11.3,0,0,1,.31,2.37c0,1.63.3,3.17,0.23,4.22a1.18,1.18,0,0,1-1.16,1.35c-1.71.26-2.77-1.49-2.3-3.72S65.29,57.38,66,57.56Z"/><path class="cls-10" d="M67,63.61c1.79-.3,3.3-0.16,3.38.31s-1.31,1.1-3.1,1.4-3.06.29-3.14-.18S65.22,63.91,67,63.61Z"/><path class="cls-16" d="M69.71,68c-0.7-.32-1.38-0.3-1.52.06a1.34,1.34,0,0,0,1,1.23c0.7,0.32,1.38.3,1.52-.06A1.34,1.34,0,0,0,69.71,68Z"/><path class="cls-10" d="M68.63,65.74c0.42-1.27,1.11-2.19,1.54-2.05s0.44,1.29,0,2.57A12.61,12.61,0,0,1,69.7,68a1.72,1.72,0,0,1-1.46-.06A4.28,4.28,0,0,1,68.63,65.74Z"/><path class="cls-12" d="M66.1,57.5c0,0.27.09,0.66,0.16,1.13A1.54,1.54,0,0,1,65.09,58,1.33,1.33,0,0,1,66.1,57.5Z"/><ellipse class="cls-5" cx="66.38" cy="59.88" rx="0.48" ry="1.97" transform="translate(-20.47 81.07) rotate(-55.76)"/><path class="cls-12" d="M71.24,60.67A0.71,0.71,0,0,0,72,60.18a0.81,0.81,0,0,0-.91-0.34,0.71,0.71,0,0,0-.78.48A0.81,0.81,0,0,0,71.24,60.67Z"/><circle class="cls-13" cx="66.51" cy="56.22" r="1.93" transform="translate(-8.38 11.77) rotate(-9.51)"/><path class="cls-16" d="M66.19,54.31a1.93,1.93,0,0,1,2.23,1.59q0,0.08,0,.16a2.69,2.69,0,0,1-2.08.19c-0.72-.58-0.63.49-0.5,0.63s-1,1.74-1.34-.26A2.07,2.07,0,0,1,66.19,54.31Z"/><path class="cls-11" d="M66.17,54.18a2.1,2.1,0,0,1,2.41,1.67l-3.86-.68A2.09,2.09,0,0,1,66.17,54.18Z"/><polygon class="cls-11" points="64.62 55.12 69.06 55.91 69.02 56.09 64.59 55.3 64.62 55.12"/><path class="cls-15" d="M66.22,54.39A1.89,1.89,0,0,1,68.3,55.6,2.09,2.09,0,0,0,65.08,55,1.88,1.88,0,0,1,66.22,54.39Z"/><path class="cls-11" d="M69.29,61c-0.93.19-1.72,0.17-1.77-.06s0.86-.61,1.59-0.76A4.57,4.57,0,0,1,70.44,60a0.78,0.78,0,0,1,.14.63A5.71,5.71,0,0,1,69.29,61Z"/><ellipse class="cls-5" cx="66.29" cy="59.64" rx="0.43" ry="1.77" transform="translate(-13.96 98.53) rotate(-67.84)"/><path class="cls-12" d="M70.71,59.42a0.64,0.64,0,0,0,.6-0.57,0.73,0.73,0,0,0-.86-0.13,0.64,0.64,0,0,0-.6.57A0.73,0.73,0,0,0,70.71,59.42Z"/><path class="cls-11" d="M69.06,60.07a1.9,1.9,0,0,1-1.56.28,2.22,2.22,0,0,1,1.26-1A4.12,4.12,0,0,1,69.88,59a0.71,0.71,0,0,1,.24.53A5.15,5.15,0,0,1,69.06,60.07Z"/><path class="cls-17" d="M71.42,78.73V76.89a2.47,2.47,0,0,0,0-4.93V60.33h1.53l-1.53-6.12V51.56h1.23l2.19,8.78h4.24A2.63,2.63,0,0,1,81.7,63v7.15h1.83v5.62h-8A4.32,4.32,0,0,1,71.42,78.73ZM38.2,72a2.47,2.47,0,0,1,0,4.93v1.85a4.32,4.32,0,0,0,4.11-3h25a4.32,4.32,0,0,0,4.11,3V76.89a2.47,2.47,0,0,1,0-4.93V60.33H63.57V53.73H71.3l0.12,0.49V51.56H61.13V70.11H38.2V72Zm0,4.93a2.47,2.47,0,0,1,0-4.93V70.11H30v5.62h4.07a4.32,4.32,0,0,0,4.11,3V76.89Z"/><polygon class="cls-11" points="59.76 49.11 66.89 49.11 66.89 46.66 59.76 46.66 57.96 46.66 55.49 51.56 30.02 51.56 35.23 68.56 38.33 68.56 38.33 56.37 42.5 68.56 45.39 68.56 45.39 56.37 49.57 68.56 52.46 68.56 52.46 56.37 56.63 68.56 59.76 68.56 59.76 56.37 59.76 55.73 59.76 51.56 59.76 49.11"/><circle class="cls-5" cx="38.2" cy="74.42" r="2.81"/><circle class="cls-5" cx="71.37" cy="74.42" r="2.81"/><polygon class="cls-18" points="89.04 40.52 102.69 78.73 104.2 78.73 90.55 40.52 89.04 40.52"/><polygon class="cls-18" points="96.69 40.52 110.34 78.73 111.85 78.73 98.2 40.52 96.69 40.52"/><path class="cls-18" d="M102.58,75.78h7.52V74.54h-7.52v1.23Z"/><path class="cls-18" d="M100.75,70.63h7.52V69.4h-7.52v1.23Z"/><path class="cls-18" d="M98.92,65.49h7.52V64.25H98.92v1.23Z"/><path class="cls-18" d="M97.1,60.34h7.52V59.11H97.1v1.23Z"/><path class="cls-18" d="M95.27,55.19h7.52V54H95.27v1.23Z"/><rect class="cls-8" x="93.44" y="48.81" width="7.52" height="1.23"/><path class="cls-10" d="M96.9,47.75c0.77,0,1.37.08,1.37,0.65s-0.65.51-1.42,0.52-1.39-.08-1.37-0.46A1.34,1.34,0,0,1,96.9,47.75Z"/><path class="cls-11" d="M95.48,40a3.37,3.37,0,0,1,.21,1.23c0,0.26,0,.54.07,0.83,0.08,0.59.31,2.17,0.45,2.65,0.18,0.64.08,2.76,0.19,3a2.8,2.8,0,0,0,1.85.26c0.25-.39-0.17-1.22-0.32-2.07-0.06-.31-0.14-0.61-0.21-0.88a2.93,2.93,0,0,1-.14-1,18.86,18.86,0,0,0-.1-2c-0.08-.58-0.18-1.11-0.28-1.55A1.27,1.27,0,0,1,97.12,40H95.48Z"/><path class="cls-10" d="M96,47.75c0.77,0,1.37.08,1.37,0.65s-0.65.51-1.42,0.52-1.39-.08-1.37-0.46A1.34,1.34,0,0,1,96,47.75Z"/><path class="cls-11" d="M93.69,32.86a5.74,5.74,0,0,0,.11,2.36c0.8,2.34,1.17,3.16,1.66,4.72a3.11,3.11,0,0,1,.09,1.3c0,0.26,0,.54,0,0.83,0,0.59.07,2.17,0.16,2.65,0.11,0.64-.23,2.76-0.14,3a2.68,2.68,0,0,0,1.83.26c0.3-.39,0-1.22-0.09-2.07,0-.31-0.08-0.61-0.11-0.88a2.84,2.84,0,0,1,0-1,18.82,18.82,0,0,0,.12-2,15.17,15.17,0,0,0-.11-1.55,1,1,0,0,1,.14-0.86,4.62,4.62,0,0,0,0-3.07C96.43,34.43,94.39,32.56,93.69,32.86Z"/><path class="cls-12" d="M93.6,32.82c0,0.27,0,.67,0,1.14a1.54,1.54,0,0,0,1.06-.77A1.33,1.33,0,0,0,93.6,32.82Z"/><path class="cls-12" d="M89.05,36.79a0.71,0.71,0,0,1-.85-0.35A0.81,0.81,0,0,1,89,36a0.71,0.71,0,0,1,.85.35A0.82,0.82,0,0,1,89.05,36.79Z"/><circle class="cls-13" cx="92.98" cy="31.62" r="1.93"/><path class="cls-14" d="M93,29.69A1.93,1.93,0,0,0,91,31.62c0,0.05,0,.11,0,0.16a2.69,2.69,0,0,0,2.09-.16c0.61-.69.7,0.38,0.6,0.54S95,33.72,95,31.69A2.07,2.07,0,0,0,93,29.69Z"/><path class="cls-11" d="M93,29.56a2.1,2.1,0,0,0-2.1,2l3.69-1.31A2.09,2.09,0,0,0,93,29.56Z"/><polygon class="cls-11" points="94.67 30.23 90.42 31.74 90.48 31.91 94.73 30.4 94.67 30.23"/><path class="cls-15" d="M93,29.77a1.89,1.89,0,0,0-1.86,1.54,2.09,2.09,0,0,1,3.08-1.09A1.88,1.88,0,0,0,93,29.77Z"/><path class="cls-11" d="M91,36.79a3.18,3.18,0,0,0,1.67-.24,5.17,5.17,0,0,0,1.35-1c0.79-.75,1.68-1.19,1.09-1.71s-1.26.58-1.75,1c-0.27.24-.49,0.52-0.7,0.74S92.36,36,91.06,36a4.58,4.58,0,0,0-1.32.06,0.78,0.78,0,0,0,0,.65A5.72,5.72,0,0,0,91,36.79Z"/><path class="cls-12" d="M89.8,38.08A0.71,0.71,0,0,1,88.89,38a0.81,0.81,0,0,1,.68-0.69,0.71,0.71,0,0,1,.91.12A0.81,0.81,0,0,1,89.8,38.08Z"/><path class="cls-11" d="M91.71,37.58a3.18,3.18,0,0,0,1.55-.66,5.17,5.17,0,0,0,1.06-1.3c0.57-.93,1.32-1.58.62-1.93s-1.07.88-1.44,1.43c-0.2.3-.34,0.62-0.49,0.89s-0.2.47-1.48,0.75a4.58,4.58,0,0,0-1.26.39,0.78,0.78,0,0,0,.13.63A5.71,5.71,0,0,0,91.71,37.58Z"/><rect class="cls-19" x="65.98" y="18.7" width="19.89" height="4.33" transform="translate(-2.59 14.91) rotate(-11.03)"/></svg>