<?xml version="1.0" encoding="UTF-8"?>
<svg width="76px" height="35px" viewBox="0 0 76 35" version="1.1" xmlns="http://www.w3.org/2000/svg" xmlns:xlink="http://www.w3.org/1999/xlink">
    <!-- Generator: Sketch 50.2 (55047) - http://www.bohemiancoding.com/sketch -->
    <title>Logo/用友云</title>
    <desc>Created with Sketch.</desc>
    <defs></defs>
    <g id="2018-0129迭代" stroke="none" stroke-width="1" fill="none" fill-rule="evenodd">
        <g id="登录-友企连网关服务" transform="translate(-247.000000, -28.000000)">
            <g id="Logo/用友云" transform="translate(247.000000, 28.000000)">
                <g>
                    <path d="M22.0362094,1.16666667 C22.8911916,1.16666667 23.6550002,1.2926763 23.6550002,2.83512248 L23.6550002,22.0153332 C23.6550002,22.6856383 23.347585,23.0087965 23.0893037,23.1623793 C22.8186732,23.3245099 22.5446269,23.3278187 22.5180894,23.3278187 L17.9168454,23.3278187 C17.8992413,23.3297488 17.8769077,23.3333333 17.8532604,23.3333333 C17.5216723,23.3333333 17.1843038,23.1028212 17.1843038,22.6666128 L17.1843038,20.8914486 C17.1843038,20.5999996 17.298862,20.2506468 17.8416995,20.2506468 L19.5230243,20.2506468 C19.6683239,20.2506468 19.6683239,20.1469715 19.6683239,20.0898949 L19.6714769,16.8028908 L14.3274442,16.7990306 L14.3274442,21.4492549 C14.3274442,21.8708495 14.0746806,22.0390462 13.8563369,22.0600018 L13.7880224,22.0638621 L10.9805594,22.0638621 C10.7540706,22.0638621 10.3788664,21.9210328 10.3788664,21.4492549 L10.3788664,16.7675971 L4.97072312,16.7675971 C4.72400269,19.067204 4.44837998,21.5225997 3.87480097,22.7917952 L3.86192632,22.8141295 C3.79545106,22.9329701 3.53454224,23.3297488 3.01377559,23.3297488 L0.530806447,23.3297488 C0.308784338,23.3297488 0.182139775,23.2274522 0.117241005,23.1408722 C-0.0448745468,22.9307643 0.00399659186,22.6462086 0.0173967428,22.5899592 L0.0265929248,22.5648676 C0.418350278,21.3097344 1.33429001,17.7969056 1.33429001,12.25 L1.33429001,2.33273833 C1.33429001,1.51160771 1.93939878,1.18900098 2.50404436,1.16666667 L22.0362094,1.16666667 Z M14.3274442,13.6496169 L19.7597603,13.6496169 L19.7597603,10.5468019 L14.3274442,10.5468019 L14.3274442,13.6496169 Z M14.3274442,4.34585946 L14.3274442,7.40952043 L19.6683239,7.40952043 L19.6683239,4.98004362 C19.6683239,4.50771428 19.4384194,4.34585946 19.0597994,4.34585946 L14.3274442,4.34585946 Z M10.3788664,7.40952043 C10.3762389,7.40207566 10.3814939,4.34971971 10.3788664,4.3436536 L5.60026746,4.34585946 C5.01460204,4.34585946 5.07871257,5.02112772 5.07871257,5.02112772 L5.07871257,7.40952043 L10.3788664,7.40952043 Z M10.3788664,13.7935491 C10.3788664,13.7935491 10.3814939,10.5597613 10.3788664,10.5468019 L5.08081455,10.5468019 L5.08081455,13.6496169 L10.3788664,13.6496169 C10.3814939,13.6366575 10.3704584,13.8302215 10.3788664,13.7935491 Z" id="Fill-1" fill="#E50113"></path>
                    <path d="M49.460455,20.7977715 C49.460455,20.4233114 49.2179679,20.3228012 48.9712818,20.3228012 L48.7038636,20.3228012 C47.0780976,20.3228012 46.6177919,20.0406301 45.9924165,19.7897524 C43.2303201,18.2539885 40.6060004,15.9518012 38.6212274,13.0863326 C38.4474974,12.8333333 38.1514742,12.8333333 38.1514742,12.8333333 L34.71519,12.8333333 C34.4000092,12.8333333 34.3698295,13.0470832 34.4362248,13.193738 C38.1682698,20.0172926 44.7256574,23.0694609 43.9564693,22.5528545 C43.7596454,22.4231724 45.2457976,23.3333333 47.2431673,23.3333333 L48.8411156,23.3333333 C49.1371388,23.3333333 49.460455,23.1609544 49.460455,22.7790687 L49.460455,20.7977715 Z" id="Fill-3" fill="#E50113"></path>
                    <path d="M33.9345532,5.83333333 C33.8505491,6.56306986 33.7531217,7.34683009 33.6407716,8.16666667 L46.5917487,8.16666667 C47.4731155,8.16666667 48.3852277,8.59185498 48.3852277,9.76071868 C48.3852277,14.4173122 41.4677791,21.0977266 37.8272729,22.8814697 C37.2328627,23.1722037 36.505735,23.3333333 35.9108124,23.3333333 L34.2403148,23.3333333 C33.9044218,23.3333333 33.6966344,23.2255543 33.6966344,22.7844686 L33.6966344,20.9983004 C33.6966344,20.6288877 33.7980941,20.329262 34.2679856,20.329262 L34.9920387,20.329262 C35.2953929,20.329262 35.8306183,20.2379193 36.2149352,20.0708618 C39.1354877,18.8074219 43.9684013,12.9420865 43.9684013,11.6045486 C43.9684013,11.224897 43.7501093,11.2407944 43.6171356,11.2407944 L33.1696158,11.2407944 C32.4729416,15.3224304 31.4170004,19.716775 29.8524544,22.6363647 C29.8524544,22.640762 29.8446893,22.6545035 29.8364065,22.6654967 L29.7934393,22.7476708 C29.4709271,23.2624272 28.9586865,23.3278367 28.8067486,23.3333333 L26.3609876,23.3333333 C26.0785953,23.3311347 25.9460702,23.196468 25.8805842,23.0846123 C25.7268344,22.8130803 25.8443468,22.4478314 25.9214806,22.3161879 C28.3570838,18.1536824 29.5602028,10.8178285 30.1233678,5.83333333 L27.4992393,5.83333333 C27.1590068,5.83333333 26.8806821,5.50547745 26.8806821,5.10534564 L26.8806821,3.05886057 C26.8806821,2.65995899 27.1590068,2.33333333 27.4992393,2.33333333 L30.4579324,2.33333333 C30.5429025,1.24134517 30.574095,0.590059795 30.574095,0.590059795 C30.6085204,0.385861179 30.8000606,-1.77635684e-15 31.2835701,-1.77635684e-15 L33.7751454,-1.77635684e-15 C33.8085355,-1.77635684e-15 34.0883395,0.0090693867 34.2700438,0.236903374 C34.3533897,0.338590437 34.440877,0.52162715 34.3942861,0.817618952 C34.3942861,0.817618952 34.3616376,1.37870694 34.2823424,2.33333333 L49.9223274,2.33333333 C50.2589183,2.33333333 50.5356823,2.65995899 50.5356823,3.05886057 L50.5356823,5.10534564 C50.5356823,5.50547745 50.2589183,5.83333333 49.9223274,5.83333333 L33.9345532,5.83333333 Z" id="Combined-Shape" fill="#E50113"></path>
                    <path d="M73.5427353,2.33333333 L53.3392989,2.33333333 C52.9797338,2.33333333 52.6861369,2.67056977 52.6861369,3.0870492 L52.6861369,5.07840765 C52.6861369,5.49488708 52.9797338,5.83333333 53.3392989,5.83333333 L73.5427353,5.83333333 C73.8989107,5.83333333 74.1906825,5.49488708 74.1906825,5.07840765 L74.1906825,3.0870492 C74.1906825,2.67056977 73.8989107,2.33333333 73.5427353,2.33333333" id="Fill-7" fill="#E50113"></path>
                    <path d="M69.7874477,18.2788497 L68.1009792,18.2788497 C68.0866199,18.2819792 68.0662028,18.2844828 68.0466831,18.2844828 C67.7637601,18.2844828 67.4752279,18.0222331 67.4752279,17.526525 L67.4752279,15.5136494 C67.4752279,15.1819255 67.573275,14.7844828 68.0374842,14.7844828 L71.3534738,14.7844828 L71.351131,14.7970284 L72.3558399,14.7970284 L72.3917382,14.8106642 C72.5684091,14.8665444 72.8017481,15.0152019 72.9112379,15.4151866 L74.2930659,20.413124 C74.4525569,21.2473168 74.3322976,21.9275047 73.9304931,22.435774 C73.4692,23.0210458 72.6620011,23.3333333 71.5858214,23.3333333 L55.6549261,23.3333333 C54.6766975,23.3333333 54.0092455,23.0533975 53.6774427,22.5063596 C53.1956363,21.7170849 53.6215439,20.6863756 53.6692374,20.5727436 L56.7757222,12.4284023 L53.3266651,12.4284023 C52.9735797,12.4284023 52.6861369,12.1281464 52.6861369,11.7607807 L52.6861369,10.0022917 C52.6861369,9.63439135 52.9735797,9.33333333 53.3266651,9.33333333 L74.6271765,9.33333333 C74.9792362,9.33333333 75.2659098,9.63439135 75.2659098,10.0022917 L75.2659098,11.7607807 C75.2659098,12.1281464 74.9792362,12.4284023 74.6271765,12.4284023 L60.8463328,12.4284023 L58.162935,19.8019174 C58.1319086,19.897101 58.1383191,20.0601963 58.371658,20.0601963 L70.2570716,20.0601963 C70.2558568,20.0538627 70.0366464,19.2229138 69.7874477,18.2788497 Z" id="Combined-Shape" fill="#E50113"></path>
                    <path d="M69.8897734,28 L69.8897734,31.7907617 C69.8897734,32.0230459 69.7590233,32.1901737 69.5818412,32.2512396 C66.3828791,33.1786235 64.513637,32.4674539 64.513637,30.9679788 L64.513637,28 L66.0800744,28 C66.2495653,28 66.3273317,28.0929137 66.3273317,28.2428028 L66.3273317,31.0462835 C66.3273317,31.5082223 67.007574,31.8065395 68.0643995,31.5202017 L68.0643995,28.2562431 C68.0643995,28.1034322 68.1575482,28 68.3193479,28 L69.8769547,28 L69.8897734,28 Z" id="Fill-10" fill="#717171"></path>
                    <path d="M24.7167312,28.1551173 C24.6868728,28.2234043 21.6982474,35 21.6982474,35 L20.4340722,35 C20.2607416,35 20.1468747,34.8528299 20.23645,34.647086 C20.2594764,34.5923387 21.1443484,32.5981835 21.1443484,32.5981835 C21.1443484,32.5981835 19.3771348,28.1471701 19.3609404,28.097721 C19.3437338,28.0509209 19.3573978,28 19.4196451,28 L20.574508,28 C20.8030008,28 20.9500156,28.1083172 21.0408561,28.3196535 C21.0833663,28.4144311 21.8728432,30.3470692 21.8728432,30.3470692 C21.9302827,30.5036582 22.0704655,30.5222017 22.1382795,30.3470692 C22.1382795,30.3470692 23.0322608,28.311412 23.0621193,28.2460685 C23.134488,28.085653 23.2298831,28 23.4378799,28 L24.633988,28 C24.7271057,28 24.7478548,28.085653 24.7167312,28.1551173" id="Fill-11" fill="#717171"></path>
                    <path d="M40.8460785,28.1551173 C40.8149573,28.2234043 37.8265596,35 37.8265596,35 L36.5627338,35 C36.3891633,35 36.2765702,34.8528299 36.3661386,34.647086 C36.3881512,34.5923387 37.2727028,32.5981835 37.2727028,32.5981835 C37.2727028,32.5981835 35.5046117,28.1471701 35.4896836,28.097721 C35.4712133,28.0509209 35.4874065,28 35.5493959,28 L36.7029058,28 C36.9326463,28 37.0796499,28.1083172 37.1704834,28.3196535 C37.2129905,28.4144311 38.0011421,30.3470692 38.0011421,30.3470692 C38.0575652,30.5036582 38.1987493,30.5222017 38.2665582,30.3470692 C38.2665582,30.3470692 39.1604714,28.311412 39.1903276,28.2460685 C39.2639558,28.085653 39.3570665,28 39.5650475,28 L40.7633416,28 C40.8541751,28 40.8759347,28.085653 40.8460785,28.1551173" id="Fill-12" fill="#717171"></path>
                    <path d="M44.4006381,30.768661 C43.9988983,31.5695157 43.4830309,31.9071225 42.8899993,31.6535613 C42.300745,31.3988604 42.2381502,30.7726496 42.6817098,29.8980057 C43.1007171,29.0726496 43.6152354,28.7490028 44.1923486,29.014245 C44.7756672,29.2820513 44.8379922,29.891453 44.4006381,30.768661 M45.5559435,28.6700855 C45.070834,28.2225071 44.3982098,28 43.5404994,28 C42.6817098,28 42.0420019,28.2330484 41.5655261,28.6780627 C41.1122535,29.1011396 40.8586367,29.7777778 40.8586367,30.3339031 C40.8586367,31.0210826 41.1292513,31.6108262 41.5398946,31.9977208 C42.0125932,32.4452991 42.7429556,32.6666667 43.5404994,32.6666667 C44.3982098,32.6666667 45.0511382,32.4336182 45.5351685,31.988604 C45.9860129,31.5643875 46.2347732,30.8695157 46.2347732,30.3339031 C46.2347732,29.6470085 46.0067879,29.0931624 45.5559435,28.6700855" id="Fill-13" fill="#717171"></path>
                    <path d="M28.2702613,30.768661 C27.87105,31.5695157 27.356391,31.9071225 26.7610805,31.6535613 C26.171974,31.3988604 26.1107436,30.7726496 26.5528432,29.8980057 C26.9717454,29.0726496 27.4864044,28.7490028 28.0633727,29.014245 C28.6451963,29.2820513 28.7088544,29.891453 28.2702613,30.768661 M29.4252769,28.6700855 C28.9416378,28.2225071 28.2689126,28 27.4103385,28 C26.5528432,28 25.9135655,28.2330484 25.4358606,28.6780627 C24.9837807,29.1011396 24.7302275,29.7777778 24.7302275,30.3339031 C24.7302275,31.0210826 24.9996952,31.6108262 25.4102355,31.9977208 C25.8855129,32.4452991 26.6143433,32.6666667 27.4103385,32.6666667 C28.2689126,32.6666667 28.9205982,32.4336182 29.4058559,31.988604 C29.857666,31.5643875 30.1063639,30.8695157 30.1063639,30.3339031 C30.1063639,29.6470085 29.8773569,29.0931624 29.4252769,28.6700855" id="Fill-14" fill="#717171"></path>
                    <path d="M30.1063639,32.6573333 L30.1063639,28.8747026 C30.1063639,28.6428273 30.235724,28.4745353 30.4155174,28.4135769 C33.6167519,27.4904505 35.4825003,28.1977432 35.4825003,29.6931205 L35.4825003,32.6573333 L33.9156478,32.6573333 C33.7486764,32.6573333 33.6686099,32.5645832 33.6686099,32.4161246 L33.6686099,29.6175787 C33.6686099,29.1552864 32.9890421,28.8586609 31.9307969,29.1421613 L31.9307969,32.4029996 C31.9307969,32.5540832 31.8387632,32.6573333 31.6772056,32.6573333 L30.119186,32.6573333 L30.119186,32.6666667 L30.1063639,32.6573333 Z" id="Fill-15" fill="#717171"></path>
                    <path d="M51.6109096,28 L51.6109096,31.7907617 C51.6109096,32.0230459 51.4801595,32.1901737 51.3029774,32.2512396 C48.1040153,33.1786235 46.2347732,32.4674539 46.2347732,30.9679788 L46.2347732,28 L47.8014955,28 C47.9707015,28 48.0484679,28.0929137 48.0484679,28.2428028 L48.0484679,31.0462835 C48.0484679,31.5082223 48.7287102,31.8065395 49.7855356,31.5202017 L49.7855356,28.2562431 C49.7855356,28.1034322 49.8786844,28 50.0404841,28 L51.5980909,28 L51.6109096,28 Z" id="Fill-16" fill="#717171"></path>
                    <path d="M62.6774736,30.7656945 C62.2798527,31.5660572 61.763869,31.9064549 61.1692565,31.6519685 C60.574644,31.3957108 60.5172814,30.7710086 60.958274,29.896839 C61.380239,29.0696105 61.8959429,28.7481074 62.4678902,29.0135172 C63.0535485,29.2789271 63.1184662,29.8862108 62.6774736,30.7656945 M63.8375975,28.6648531 C63.3521139,28.2226018 62.6774736,28 61.8209518,28 C60.958274,28 60.3191705,28.2290968 59.8401227,28.6769575 C59.3876575,29.0979524 59.1375006,29.7749099 59.1375006,30.3299382 C59.1375006,31.0178191 59.4055659,31.6103414 59.8157785,31.9964994 C60.2911887,32.4414078 61.0231917,32.6666667 61.8209518,32.6666667 C62.6774736,32.6666667 63.330568,32.4307796 63.8160516,31.982919 C64.2657185,31.561924 64.513637,30.866072 64.513637,30.3299382 C64.513637,29.6476666 64.2900627,29.0911621 63.8375975,28.6648531" id="Fill-17" fill="#717171"></path>
                    <path d="M57.1196143,25.6666667 C57.0358122,25.6666667 56.987046,25.7668309 56.987046,25.916926 L56.987046,32.6666667 L58.6022354,32.6666667 C58.6868266,32.6666667 58.7341724,32.5665024 58.7341724,32.4167099 L58.7341724,25.6666667 L57.1196143,25.6666667 Z" id="Fill-18" fill="#717171"></path>
                    <path d="M73.4310737,30.670985 C73.0323472,31.5147192 72.5161911,31.8700536 71.918635,31.6009596 C71.3306868,31.3345329 71.2701039,30.6763195 71.7112652,29.754643 C72.1294744,28.8851256 72.6469649,28.5460909 73.2263727,28.8231866 C73.344336,28.8806802 73.4356108,28.9568445 73.5111393,29.0433813 C73.6453826,29.1971916 73.7121039,29.3960485 73.7123708,29.635803 L73.7123708,29.6417302 C73.7115701,29.8823737 73.644315,30.1639148 73.5111393,30.4827971 C73.4849845,30.5453288 73.4622993,30.6057861 73.4310737,30.670985 L73.4310737,30.670985 Z M73.7521367,25.6666667 C73.5994783,25.6666667 73.5111393,25.7727632 73.5111393,25.9304262 L73.5111393,27.8730596 C73.2277072,27.7986734 72.9159852,27.7601468 72.5730377,27.7601468 C71.7112652,27.7601468 71.0712744,28.0007903 70.5964855,28.4705193 C70.1419799,28.9147615 69.8897734,29.6266159 69.8897734,30.2122213 C69.8897734,30.9332628 70.1563917,31.5579876 70.5684626,31.9616286 C71.0424508,32.4340248 71.7755845,32.6666667 72.5730377,32.6666667 C72.9191878,32.6666667 73.2295754,32.6251764 73.5111393,32.5469376 L73.5111393,32.6660739 L75.0246455,32.6660739 C75.1786383,32.6660739 75.2659098,32.5608665 75.2659098,32.4023144 L75.2659098,25.6666667 L73.7521367,25.6666667 Z" id="Fill-19" fill="#717171"></path>
                    <path d="M55.0628351,32.1157445 C54.3181725,32.0492235 54.0634379,31.4637221 54.1204333,30.8342642 C54.1204333,30.8342642 54.1243881,30.0480279 54.7776254,28.8488929 C54.9323272,28.5646405 55.1726385,28.4866909 55.3957348,28.5133579 C55.507632,28.5268379 55.6006857,28.5825162 55.675594,28.6798067 C55.7505022,28.775632 55.790748,28.9007617 55.7949354,29.0549027 C55.8007513,29.2418646 55.7833037,29.4009873 55.7265409,29.5472161 L56.974159,29.5472161 C57.0225469,29.2787881 56.9304237,28.94296 56.7689754,28.715558 C56.7277992,28.6610519 56.6861576,28.6042014 56.6380023,28.5561422 C56.213212,28.1309358 55.7791163,27.9597983 54.9593128,28.0078574 C54.3170093,28.0462462 53.6630742,28.3337221 53.239447,28.8568051 C52.9574942,29.2028898 52.7292799,29.8256077 52.6943847,30.2686898 C52.644601,30.8688434 52.822101,31.5806466 53.1750073,31.9786 C53.584909,32.4389717 54.2123239,32.6666667 54.9023174,32.6666667 C55.6427925,32.6666667 56.2027434,32.4269569 56.62102,31.9680504 C56.6938346,31.8854121 56.7594374,31.7951546 56.8206203,31.6990363 L56.4446832,31.409216 C56.4446832,31.409216 55.8065671,32.1822654 55.0628351,32.1157445" id="Fill-20" fill="#717171"></path>
                </g>
            </g>
        </g>
    </g>
</svg>