<?xml version="1.0" encoding="utf-8"?>
<!-- Generator: Adobe Illustrator 21.0.2, SVG Export Plug-In . SVG Version: 6.00 Build 0)  -->
<svg version="1.1" id="图层_1" xmlns="http://www.w3.org/2000/svg" xmlns:xlink="http://www.w3.org/1999/xlink" x="0px" y="0px"
	 viewBox="0 0 110 44" style="enable-background:new 0 0 110 44;" xml:space="preserve">
<style type="text/css">
	.st0{fill:#FFFFFF;}
	.st1{enable-background:new    ;}
</style>
<title>APIlink-logo</title>
<desc>Created with Sketch.</desc>
<g id="logo-APIlink">
	<polygon id="XMLID_20_" class="st0" points="93,0 96.8,0 96.8,16.1 104.5,8.4 109.5,8.4 102.5,15.2 110,26 105.4,26 99.8,17.8 
		96.8,20.6 96.8,26 93,26 	"/>
	<path id="XMLID_18_" class="st0" d="M74,8h9.4c5.2,0,7.6,2.2,7.6,6.7V26h-4.1V15.1c0-3.1-1.5-4.6-4.5-4.6h-4.2V26H74V8L74,8z"/>
	<path id="XMLID_15_" class="st0" d="M67,2h2v3.5h-2V2z M67,8.9h2V26h-2V8.9z"/>
	<polygon id="XMLID_13_" class="st0" points="59,0 61,0 61,26 59,26 	"/>
	<polygon id="Shape" class="st0" points="55,3 55,2 50.7,2 47.3,2 43,2 43,3 47.3,3 47.3,25 43,25 43,26 55,26 55,25 50.7,25 
		50.7,3 	"/>
	<path id="XMLID_7_" class="st0" d="M25,26V1h6.6c5.6,0,8.4,3.1,8.4,9.2c-0.1,5.9-2.9,8.9-8.4,9h-4.1V26H25z M27.5,17.5H31
		c4.3,0,6.4-2.5,6.4-7.3c0-5-2.1-7.5-6.5-7.5h-3.5V17.5z"/>
	<path id="XMLID_4_" class="st0" d="M0,26L9.2,2h2.5L21,26h-2.5l-2.8-7.4H5.2L2.4,26H0z M10.5,4.4L5.9,16.9h9.2L10.5,4.4z"/>
</g>
<g class="st1">
	<path class="st0" d="M5.3,33.8C6.6,35.2,8,36.3,9.7,37L9.2,38c-1.6-0.8-3-1.9-4.2-3.3C3.9,35.9,2.5,37,0.8,38l-0.5-0.9
		c1.7-0.9,3.2-1.9,4.4-3.2H5.3z M5.8,36.5v2.1h2.6v0.9H5.8v2.2h3.4v0.9H0.7v-0.9h1.4v-3.8h0.9v3.8h1.7v-5.2H5.8z"/>
	<path class="st0" d="M18.6,33.9v7.9h1.2v-7.9h0.9v7.9h2.9v0.9h-8.9v-0.9h2.9v-7.9H18.6z M17.1,40.3l-0.9,0.2
		c-0.3-1.6-0.8-3.1-1.3-4.5l0.8-0.3C16.3,37.1,16.7,38.6,17.1,40.3z M23.4,36c-0.4,1.7-0.9,3.2-1.5,4.5l-0.8-0.3
		c0.6-1.2,1.1-2.6,1.5-4.4L23.4,36z"/>
</g>
<g class="st1">
	<path class="st0" d="M31.1,34.9h1.3l2.8,7.1h-1.3l-0.7-1.9h-2.9L29.6,42h-1.3L31.1,34.9z M30.6,39.2h2.2l-1.1-3.1h0L30.6,39.2z"/>
	<path class="st0" d="M40,34.9h3.2c0.5,0,0.9,0.1,1.2,0.2c0.3,0.1,0.6,0.3,0.7,0.5s0.3,0.5,0.4,0.7c0.1,0.3,0.1,0.5,0.1,0.7
		c0,0.2,0,0.5-0.1,0.7c-0.1,0.3-0.2,0.5-0.4,0.7s-0.4,0.4-0.7,0.5c-0.3,0.1-0.7,0.2-1.2,0.2h-1.9V42H40V34.9z M41.3,38.2h1.8
		c0.1,0,0.3,0,0.4-0.1c0.1,0,0.3-0.1,0.4-0.2c0.1-0.1,0.2-0.2,0.3-0.4s0.1-0.3,0.1-0.6c0-0.2,0-0.4-0.1-0.6
		c-0.1-0.2-0.2-0.3-0.3-0.4c-0.1-0.1-0.2-0.2-0.4-0.2c-0.1,0-0.3,0-0.5,0h-1.9V38.2z"/>
	<path class="st0" d="M50.9,34.9h1.2V42h-1.2V34.9z"/>
</g>
<g class="st1">
	<path class="st0" d="M59.5,34.9v-1.1h0.9v1.1h1v0.8c0.2-0.4,0.5-0.9,0.7-1.3l0.8,0.3c-0.3,0.8-0.7,1.5-1.1,2.1h0.9v0.9h-1.6
		c-0.3,0.3-0.5,0.5-0.8,0.8h2V43h-0.9v-0.4h-1.8V43h-0.9v-3.5c-0.2,0.1-0.5,0.2-0.7,0.3l-0.5-0.7c0.9-0.4,1.7-0.9,2.4-1.5h-2.1v-0.9
		h1.8v-1.1h-1.4v-0.8H59.5z M61.4,39.3h-1.8v0.9h1.8V39.3z M59.6,41.8h1.8v-0.9h-1.8V41.8z M61.4,35.7h-1v1.1h0.2
		C60.9,36.5,61.2,36.1,61.4,35.7z M66.4,34.2v0.7c-0.3,1-0.6,2-1,2.8c0.7,1,1.1,1.8,1.1,2.4c0,0.6-0.1,1-0.4,1.2
		c-0.3,0.2-0.8,0.4-1.7,0.4l-0.3-1c0.3,0,0.6,0.1,0.9,0.1c0.2,0,0.4-0.1,0.4-0.1c0.1-0.1,0.1-0.3,0.1-0.6c0-0.6-0.4-1.4-1.2-2.4
		c0.3-0.8,0.6-1.6,1-2.7H64v8h-0.9v-8.8H66.4z"/>
	<path class="st0" d="M72.2,40.1l-0.6-0.8c1.2-1,2.1-2.1,2.8-3.3H72v-0.9h2.8c0.2-0.4,0.4-0.9,0.5-1.4l1,0.1
		c-0.1,0.4-0.3,0.8-0.4,1.3h4.9V36h-5.3c-0.4,0.8-0.8,1.5-1.4,2.1v4.9h-0.9v-3.8C72.9,39.5,72.6,39.8,72.2,40.1z M77.1,38.4v-1.8h1
		v1.8h2.3v0.9H78v2.5h2.7v0.9h-6.3v-0.9h2.6v-2.5h-2.2v-0.9H77.1z"/>
	<path class="st0" d="M90.8,42.8c-0.6,0-1.2-0.1-1.6-0.2c-0.4-0.1-0.7-0.4-1-0.7c-0.1-0.2-0.2-0.2-0.4-0.2c-0.2,0-0.6,0.5-1.1,1.3
		l-0.7-0.6c0.5-0.8,0.9-1.3,1.3-1.5v-2.8h-1.3v-0.9h2.2V41c0,0,0.1,0.1,0.1,0.1c0.2,0.3,0.5,0.5,0.7,0.6c0.3,0.1,0.7,0.2,1.3,0.2
		c0.6,0,1.2,0,2,0c0.5,0,1,0,1.5,0c0.5,0,0.9,0,1.2,0l-0.2,0.9h-2.3C92.1,42.9,91.5,42.8,90.8,42.8z M88.6,35.5l-0.7,0.7
		c-0.4-0.5-0.9-1-1.7-1.6l0.7-0.6C87.5,34.4,88.1,34.9,88.6,35.5z M91.4,35.2c-0.1-0.4-0.3-0.9-0.4-1.2l1-0.2
		c0.1,0.4,0.3,0.9,0.4,1.4h2.4v0.9H94c-0.3,1-0.7,1.9-1.2,2.7c0.7,0.6,1.4,1.3,2,1.9l-0.7,0.7c-0.5-0.6-1.1-1.2-1.8-1.9
		c-0.8,0.9-1.7,1.5-2.9,1.9l-0.5-0.9c1.1-0.4,2-0.9,2.7-1.7c-0.7-0.6-1.4-1.1-2.1-1.7l0.6-0.6c0.7,0.5,1.4,1.1,2.1,1.6
		c0.4-0.6,0.7-1.3,0.9-2.1h-4v-0.9H91.4z"/>
</g>
<g class="st1">
	<path class="st0" d="M103.4,34.1v3.6c0,2.5-0.8,4.2-2.4,5.4l-0.7-0.6c1.4-1,2.2-2.6,2.2-4.7v-3.6H103.4z M106.5,42.8
		c-0.7,0-1.1-0.4-1.1-1.2v-7.5h1v7.2c0,0.3,0.1,0.5,0.4,0.5h1c0.2,0,0.3-0.1,0.4-0.2c0.1-0.2,0.2-0.7,0.2-1.5l0.9,0.3
		c-0.1,1.2-0.2,1.9-0.4,2.1c-0.2,0.2-0.5,0.3-0.9,0.3H106.5z"/>
</g>
</svg>
