<?xml version="1.0" encoding="UTF-8"?>
<svg width="95px" height="24px" viewBox="0 0 95 24" version="1.1" xmlns="http://www.w3.org/2000/svg" xmlns:xlink="http://www.w3.org/1999/xlink">
    <!-- Generator: Sketch 47.1 (45422) - http://www.bohemiancoding.com/sketch -->
    <title>logo-用友云平台</title>
    <desc>Created with Sketch.</desc>
    <defs></defs>
    <g id="API开放平台" stroke="none" stroke-width="1" fill="none" fill-rule="evenodd">
        <g id="API改版-效果图" transform="translate(-233.000000, -7.000000)" fill="#FFFFFF">
            <g id="logo" transform="translate(160.000000, 0.000000)">
                <g id="logo-用友云平台" transform="translate(73.000000, 7.000000)">
                    <path d="M10.7062855,9.79661715 L14.7681696,9.79661715 L14.7681696,7.67708715 L10.7062855,7.67708715 L10.7062855,9.79661715 Z M10.7126911,3.43838885 L14.246681,3.43838885 C14.5300332,3.43838885 14.7037371,3.54942908 14.7037371,3.87097552 L14.7037371,5.53296193 L10.7126911,5.53296193 L10.7126911,3.43838885 Z M7.75783995,9.79661715 L7.75783995,9.79661715 L3.79882175,9.79661715 L3.79882175,7.67744885 L7.75783995,7.67744885 L7.75783995,9.79661715 Z M7.75783995,9.80927646 L7.75783995,9.89572146 C7.75143438,9.91416788 7.75783995,9.8400205 7.75783995,9.80927646 L7.75783995,9.80927646 Z M4.18503985,3.43838885 L7.75783995,3.43838885 L7.75783995,5.53296193 L3.79882175,5.53296193 L3.79882175,3.90171956 C3.79882175,3.89557075 3.7472004,3.43838885 4.18503985,3.43838885 L4.18503985,3.43838885 Z M17.259559,16.3038636 C17.4524797,16.1986105 17.6842105,15.9761683 17.6842105,15.5189865 L17.6842105,2.40611264 C17.6842105,1.34960289 17.1114773,1.26315789 16.4739349,1.26315789 L1.87413678,1.26315789 C1.44910846,1.27545551 0.998457865,1.49789765 0.998457865,2.06033266 L0.998457865,8.83921171 C0.998457865,12.6330257 0.316076408,15.0306988 0.0199130585,15.8897234 L0.0135074898,15.9081698 C0.000696352588,15.9454243 -0.0313314905,16.1429095 0.0907511114,16.2850555 C0.142372459,16.3469053 0.232427217,16.4149038 0.399725598,16.4149038 L2.25394931,16.4149038 C2.63979062,16.4149038 2.83949365,16.1429095 2.88470942,16.0626133 L2.89111499,16.0503157 C3.32254888,15.1851424 3.52828067,13.5043479 3.70839019,11.9288065 L7.75143438,11.9288065 L7.75143438,15.1298031 C7.75143438,15.4509879 8.0344098,15.5497305 8.20208498,15.5497305 L10.3004739,15.5497305 L10.3520952,15.5497305 C10.5129881,15.5374329 10.7062855,15.4198821 10.7062855,15.1298031 L10.7062855,11.9534017 L14.6973316,11.9534017 L14.6973316,14.20278 C14.6973316,14.2400346 14.6973316,14.3138202 14.5876833,14.3138202 L13.3325686,14.3138202 C12.9271338,14.3138202 12.8434846,14.5550705 12.8434846,14.7529174 L12.8434846,15.9638707 C12.8434846,16.2604603 13.0944322,16.4210526 13.3453798,16.4210526 C13.3645965,16.4210526 13.3777844,16.4210526 13.3905956,16.4149038 L16.8281251,16.4149038 C16.8537474,16.4149038 17.059856,16.4149038 17.259559,16.3038636 L17.259559,16.3038636 Z" id="Fill-1"></path>
                    <path d="M32.9679349,7.71146236 C33.0688667,7.71146236 33.2330195,7.69889334 33.2330195,7.97023626 C33.2330195,8.43122349 32.374175,9.66298727 31.2435912,10.9006659 C30.6749718,10.3069646 30.144433,9.66927178 29.6582597,8.9809332 C29.5318177,8.7975734 29.310729,8.7975734 29.310729,8.7975734 L26.7907619,8.7975734 C26.5567333,8.7975734 26.5378779,8.95579516 26.5885286,9.05671698 C27.3967223,10.5154625 28.3823785,11.7346572 29.3613798,12.726131 C28.6726036,13.3072632 27.984197,13.7808195 27.4030074,14.0207398 C27.1127823,14.1408849 26.7083158,14.2040996 26.480942,14.2040996 L25.9378329,14.2040996 C25.5840171,14.2040996 25.5082258,14.418882 25.5082258,14.6839404 L25.5082258,15.9600654 C25.5082258,16.2757696 25.6660935,16.3515534 25.9189775,16.3515534 L27.1756336,16.3515534 C27.6240961,16.3515534 28.1675749,16.2376928 28.6160374,16.029195 C29.3484398,15.6883528 30.2520196,15.0946515 31.1929404,14.3493827 C32.7405611,15.5493543 33.8774301,16.0480485 33.5805501,15.8524894 C33.4352527,15.7578521 34.5281258,16.4210526 35.9936701,16.4210526 L37.1682498,16.4210526 C37.3830534,16.4210526 37.6229974,16.2946231 37.6229974,16.016626 L37.6229974,14.576734 C37.6229974,14.3050214 37.4462744,14.2292377 37.2632662,14.2292377 L37.0673181,14.2292377 C35.8735132,14.2292377 35.5322676,14.0270243 35.0775201,13.8440342 C34.4205392,13.4839688 33.7764983,13.0610583 33.1513128,12.5871324 C35.0080139,10.7113913 36.5619197,8.46301571 36.5619197,6.64420484 C36.5619197,5.81021351 35.8735132,5.50707837 35.2102472,5.50707837 L26.0831303,5.50707837 C26.1589215,4.96402284 26.2284277,4.43982085 26.2849938,3.95332591 L37.4399892,3.95332591 C37.6862184,3.95332591 37.8947368,3.74519775 37.8947368,3.49862319 L37.8947368,2.21658333 C37.8947368,1.96409394 37.6925036,1.76188061 37.4399892,1.76188061 L26.5127374,1.76188061 C26.5822435,1.01661177 26.607384,0.568193559 26.607384,0.568193559 C26.6388097,0.359695727 26.5755886,0.233635868 26.5127374,0.164136591 C26.3800102,0.00628450911 26.1714918,0 26.1463513,0 L24.2892804,0 C23.9291795,0 23.7838821,0.271342923 23.7587416,0.410341477 C23.7587416,0.410341477 23.7332313,0.921974454 23.6637252,1.76188061 L20.8213679,1.76188061 C20.5688536,1.76188061 20.3603352,1.96409394 20.3603352,2.21658333 L20.3603352,3.49862319 C20.3603352,3.75148226 20.5688536,3.95332591 20.8213679,3.95332591 L23.4426365,3.95332591 C23.0322546,7.45231878 22.1353296,12.6880542 20.2974839,15.6377071 C20.240548,15.7323444 20.1518168,15.9848338 20.2656885,16.1744781 C20.3163393,16.2502619 20.4109859,16.3452688 20.6257895,16.3515534 L22.4447798,16.3515534 C22.5586516,16.3452688 22.9376079,16.3009076 23.177552,15.9408422 L23.2089776,15.8839119 C23.2156325,15.8776274 23.2219176,15.8650584 23.2219176,15.8650584 C24.4094373,13.7745349 25.2050607,10.6104694 25.7230293,7.70517785 L32.9679349,7.70517785 L32.9679349,7.71146236 Z" id="Fill-3"></path>
                    <path d="M40.9170549,3.78947368 L56.3462382,3.78947368 C56.6205314,3.78947368 56.8421053,3.54609954 56.8421053,3.24575657 L56.8421053,1.80729389 C56.8421053,1.50653204 56.6205314,1.26315789 56.3462382,1.26315789 L40.9170549,1.26315789 C40.6431437,1.26315789 40.4211878,1.50653204 40.4211878,1.80729389 L40.4211878,3.24575657 C40.4146934,3.54609954 40.6431437,3.78947368 40.9170549,3.78947368" id="Fill-4"></path>
                    <path d="M39.6222129,8.54951041 L42.1280287,8.54951041 L39.8668922,14.4280743 C39.8300472,14.5102971 39.5245559,15.2569696 39.8729734,15.8262332 C40.1112137,16.2188288 40.6002144,16.4210526 41.3088541,16.4210526 L52.8903376,16.4210526 C53.6723095,16.4210526 54.259325,16.1932731 54.5952224,15.7758625 C54.888909,15.4088226 54.9744037,14.9151151 54.8581453,14.3139993 L53.8558189,10.7073048 C53.7764055,10.4161915 53.6054162,10.3087832 53.4766377,10.2706348 L53.4523128,10.2580421 L51.680177,10.2580421 L51.5946824,10.2580421 L50.4882601,10.2580421 C50.1033553,10.2580421 50.0239419,10.5047107 50.0239419,10.7073048 L50.0239419,11.9473144 C50.0239419,12.2513908 50.2621822,12.4158365 50.5004225,12.4158365 C50.5190238,12.4158365 50.5311863,12.4158365 50.5433487,12.4095402 L51.4966676,12.4095402 C51.7105831,13.2258428 51.9305797,14.0484417 51.9305797,14.0547381 L43.2952631,14.0547381 C43.1242738,14.0547381 43.1178349,13.9343668 43.1425174,13.871033 L45.0920815,8.54951041 L55.1149869,8.54951041 C55.3714708,8.54951041 55.5789474,8.33432357 55.5789474,8.06876596 L55.5789474,6.7969043 C55.5789474,6.53097632 55.3714708,6.31578947 55.1149869,6.31578947 L39.6222129,6.31578947 C39.365729,6.31578947 39.1578947,6.53097632 39.1578947,6.7969043 L39.1578947,8.06246962 C39.1578947,8.32802722 39.365729,8.54951041 39.6222129,8.54951041" id="Fill-5"></path>
                    <path d="M74.5263158,11.6973764 C74.5263158,11.9587852 74.3183815,12.1724917 74.0643995,12.1724917 L68.2519527,12.1724917 C67.9976109,12.1724917 67.7893169,12.3861981 67.7893169,12.6476069 L67.7893169,15.9459374 C67.7893169,16.2069645 67.5813826,16.4210526 67.3274006,16.4210526 L65.2358263,16.4210526 C64.9814845,16.4210526 64.7735502,16.2069645 64.7735502,15.9459374 L64.7735502,12.6476069 C64.7735502,12.3861981 64.5656159,12.1724917 64.3112742,12.1724917 L58.5675392,12.1724917 C58.3135572,12.1724917 58.1052632,11.9587852 58.1052632,11.6973764 L58.1052632,10.1983781 C58.1052632,9.93696931 58.3135572,9.72326284 58.5675392,9.72326284 L64.3112742,9.72326284 C64.5656159,9.72326284 64.7735502,9.50955637 64.7735502,9.24852918 L64.7735502,4.02913023 C64.7735502,3.76772142 64.5656159,3.55401495 64.3112742,3.55401495 L59.5277064,3.55401495 C59.2733646,3.55401495 59.0650706,3.34030848 59.0650706,3.07889967 L59.0650706,1.73827318 C59.0650706,1.47686437 59.2733646,1.26315789 59.5277064,1.26315789 L73.1042323,1.26315789 C73.3585741,1.26315789 73.5661486,1.47686437 73.5661486,1.73827318 L73.5661486,3.07889967 C73.5661486,3.34030848 73.3585741,3.55401495 73.1042323,3.55401495 L68.2519527,3.55401495 C67.9976109,3.55401495 67.7893169,3.76772142 67.7893169,4.02913023 L67.7893169,9.24852918 C67.7893169,9.50955637 67.9976109,9.72326284 68.2519527,9.72326284 L74.0643995,9.72326284 C74.3183815,9.72326284 74.5263158,9.93696931 74.5263158,10.1983781 L74.5263158,11.6973764 Z" id="Fill-6"></path>
                    <path d="M69.775034,8.84210526 C69.5231815,8.84210526 69.4054601,8.64628483 69.5142632,8.40712074 L70.7139514,5.50154799 C70.8056314,5.25464396 71.0870926,5.05263158 71.3389451,5.05263158 L72.9381726,5.05263158 C73.1903818,5.05263158 73.3241562,5.25580495 73.2360435,5.50425697 L72.0909352,8.40402477 C71.9860561,8.64473684 71.6946065,8.84210526 71.4423973,8.84210526 L69.775034,8.84210526 Z" id="Fill-7"></path>
                    <path d="M63.1172688,8.40707632 C63.2260602,8.64626483 63.1087082,8.84210526 62.8565261,8.84210526 L61.1893424,8.84210526 C60.9371603,8.84210526 60.6450286,8.64471668 60.5405175,8.40398002 L59.3955326,5.50391606 C59.3074293,5.25543867 59.4411893,5.05263158 59.6933713,5.05263158 L61.2927834,5.05263158 C61.5446087,5.05263158 61.8256829,5.25427756 61.9173531,5.5012068 L63.1172688,8.40707632 Z" id="Fill-8"></path>
                    <path d="M90.4942157,13.1583758 L90.4942157,12.0798116 C90.4942157,11.6383977 90.2986181,11.4176908 89.907056,11.4176908 L81.8824177,11.4176908 C81.4912225,11.4176908 81.295625,11.6383977 81.295625,12.0798116 L81.295625,13.1583758 C81.295625,13.5997897 81.4912225,13.8208994 81.8824177,13.8208994 L89.907056,13.8208994 C90.2549481,13.7721666 90.4505457,13.5518624 90.4942157,13.1583758 L90.4942157,13.1583758 Z M93.4736842,14.6549944 C93.3863442,15.7335586 92.777533,16.3219762 91.6472506,16.4210526 L80.0772686,16.4210526 C78.9895552,16.3219762 78.4027625,15.7335586 78.3157895,14.6549944 L78.3157895,10.9021709 C78.4027625,9.67660303 78.9895552,8.98910897 80.0772686,8.84210526 L91.6472506,8.84210526 C92.777533,8.94077899 93.3863442,9.62706479 93.4736842,10.9021709 L93.4736842,14.6549944 Z" id="Fill-9"></path>
                    <path d="M94.4610938,5.50402236 L93.3575196,3.83337878 C93.343573,3.80440415 92.9477024,3.19900464 92.9477024,3.19900464 C92.7256286,2.86323971 92.2103174,2.58883283 91.8022882,2.58883283 L90.2270307,2.58883283 C89.8190015,2.58883283 89.6863294,2.84960458 89.9323628,3.16832561 L90.1190335,3.41034906 L90.1129542,3.41034906 L91.2841161,4.92759749 C91.4017687,5.31244887 91.2841161,5.50402236 90.9311583,5.50402236 L81.5861805,5.50402236 L84.8908239,1.81299427 C85.157956,1.5106354 85.0424491,1.26315789 84.6344199,1.26315789 L82.8238572,1.26315789 C82.4154704,1.26315789 81.8622529,1.50961276 81.5940479,1.81060813 L78.4092028,5.33119716 C78.056245,6.8296973 78.7035131,7.57894737 80.351007,7.57894737 L93.4022204,7.57894737 C94.696399,7.57894737 95.0493568,6.8873057 94.4610938,5.50402236" id="Fill-10"></path>
                    <path d="M59.5194968,18.9473684 C59.4078265,18.9473684 59.3419796,19.0042711 59.3419796,19.0869011 L59.3419796,20.8502789 C58.5984094,21.0055506 58.1182272,20.8451334 58.1182272,20.5969409 L58.1182272,19.0817556 C58.1182272,18.9991256 58.0658577,18.9525139 57.9472561,18.9525139 L56.8421053,18.9525139 L56.8421053,20.5554746 C56.8421053,21.3675485 58.1578894,21.7501282 60.4140144,21.2485977 C60.5391622,21.2174223 60.6315789,21.1245014 60.6315789,21.0004051 L60.6315789,18.9525139 L60.6246477,18.9525139 L59.5194968,18.9525139 L59.5194968,18.9473684 Z" id="Fill-11"></path>
                    <path d="M27.7158662,18.9473684 L26.8729462,18.9473684 C26.7266344,18.9473684 26.6563911,19.0101898 26.609448,19.1215549 C26.5861478,19.1705066 25.9597828,20.6406894 25.9597828,20.6406894 C25.9128397,20.7663321 25.8131284,20.7524625 25.772353,20.6406894 C25.772353,20.6406894 25.2162314,19.2471976 25.1871061,19.1774414 C25.1226879,19.0240594 25.0171515,18.9473684 24.8591897,18.9473684 L24.045395,18.9473684 C24.0042769,18.9473684 23.9926268,18.9820425 24.0042769,19.0171246 C24.0162697,19.0517987 25.2628319,22.2646621 25.2628319,22.2646621 C25.2628319,22.2646621 24.6368096,23.7075136 24.6248168,23.7421877 C24.5607412,23.8886349 24.6426346,24 24.7653035,24 L25.6551666,24 C25.6551666,24 27.7628093,19.1076852 27.7861095,19.0587335 C27.7977596,19.0101898 27.7802845,18.9473684 27.7158662,18.9473684" id="Fill-12"></path>
                    <path d="M39.0842872,18.9473684 L38.2413672,18.9473684 C38.0950555,18.9473684 38.0306372,19.0101898 37.9778691,19.1215549 C37.9545688,19.1705066 37.3282039,20.6406894 37.3282039,20.6406894 C37.2812608,20.7663321 37.1815495,20.7524625 37.1407741,20.6406894 C37.1407741,20.6406894 36.5846525,19.2471976 36.5551845,19.1774414 C36.4911089,19.0240594 36.3855726,18.9473684 36.2276107,18.9473684 L35.413816,18.9473684 C35.372698,18.9473684 35.3610479,18.9820425 35.372698,19.0171246 C35.3846907,19.0517987 36.6312529,22.2646621 36.6312529,22.2646621 C36.6312529,22.2646621 36.004888,23.7075136 35.9932379,23.7421877 C35.9291622,23.8886349 36.010713,24 36.1337245,24 L37.0235877,24 C37.0235877,24 39.1312303,19.1076852 39.1545306,19.0587335 C39.1661807,19.0101898 39.1487055,18.9473684 39.0842872,18.9473684" id="Fill-13"></path>
                    <path d="M41.6511327,20.4480154 C41.3705796,20.8824754 41.0028325,21.0643631 40.5851038,20.9280213 C40.16774,20.7916795 40.1239606,20.4530432 40.4355242,19.978065 C40.7284815,19.5335494 41.0962286,19.3566895 41.5015531,19.4980591 C41.9127148,19.6447522 41.9564942,19.9730373 41.6511327,20.4480154 M42.4676189,19.3111437 C42.1246801,19.0686268 41.6511327,18.9473684 41.0466119,18.9473684 C40.4420911,18.9473684 39.993352,19.0736546 39.6566153,19.3161715 C39.3388497,19.543605 39.1578947,19.912408 39.1578947,20.2105263 C39.1578947,20.5843572 39.3512538,20.9028824 39.6376442,21.1099089 C39.9681788,21.3524258 40.4855057,21.4736842 41.0466119,21.4736842 C41.6511327,21.4736842 42.112276,21.347398 42.4552148,21.1048811 C42.7729804,20.8774477 42.9473684,20.498589 42.9473684,20.2105263 C42.9411663,19.8417232 42.7791825,19.543605 42.4676189,19.3111437" id="Fill-14"></path>
                    <path d="M30.2888006,20.4480154 C30.0082602,20.8824754 29.6467315,21.0643631 29.2231848,20.9280213 C28.8054751,20.7916795 28.7616976,20.4530432 29.0732471,19.978065 C29.3661911,19.5335494 29.7339216,19.3566895 30.1392277,19.4980591 C30.5503708,19.6447522 30.5941482,19.9730373 30.2888006,20.4480154 M31.099048,19.3111437 C30.7561248,19.0686268 30.2825988,18.9473684 29.6781053,18.9473684 C29.0732471,18.9473684 28.6245283,19.0736546 28.2881717,19.3161715 C27.9704204,19.543605 27.7894737,19.912408 27.7894737,20.2105263 C27.7894737,20.5843572 27.9766222,20.9028824 28.2692014,21.1099089 C28.6059229,21.3524258 29.1170245,21.4736842 29.6781053,21.4736842 C30.2825988,21.4736842 30.7437212,21.347398 31.0866444,21.1048811 C31.4043957,20.8774477 31.5787758,20.498589 31.5787758,20.2105263 C31.5849776,19.8417232 31.4230011,19.543605 31.099048,19.3111437" id="Fill-15"></path>
                    <path d="M31.7965027,19.172463 C31.6711384,19.2036383 31.5789474,19.2965589 31.5789474,19.4206547 L31.5789474,21.4682361 L31.5855049,21.4736842 L31.5855049,21.4682361 L32.6860106,21.4682361 C32.7982599,21.4682361 32.8642208,21.4113336 32.8642208,21.3287039 L32.8642208,19.5653323 C33.6086919,19.4103638 34.0897051,19.5704777 34.0897051,19.8238149 L34.0897051,21.3389948 C34.0897051,21.4219272 34.1491085,21.4682361 34.2613578,21.4682361 L35.3684211,21.4682361 L35.3684211,19.865281 C35.3684211,19.0535126 34.05036,18.6709342 31.7965027,19.172463" id="Fill-16"></path>
                    <path d="M45.62476,18.9473684 C45.5130897,18.9473684 45.4472427,19.0042711 45.4472427,19.0869011 L45.4472427,20.8502789 C44.7036726,21.0055506 44.2234903,20.8451334 44.2234903,20.5969409 L44.2234903,19.0817556 C44.2234903,18.9991256 44.1711208,18.9525139 44.0525193,18.9525139 L42.9473684,18.9525139 L42.9473684,20.5554746 C42.9473684,21.3675485 44.2631525,21.7501282 46.5196626,21.2485977 C46.6444253,21.2174223 46.7368421,21.1241987 46.7368421,21.0004051 L46.7368421,18.9525139 L46.7302959,18.9525139 L45.62476,18.9525139 L45.62476,18.9473684 Z" id="Fill-17"></path>
                    <path d="M55.5508576,20.4462851 C55.2734869,20.8812961 54.9054227,21.0647493 54.4920118,20.9285399 C54.0725547,20.7920238 54.0336321,20.4515003 54.3438792,19.979676 C54.6405223,19.5342345 55.0021624,19.3559965 55.4087712,19.5029432 C55.8153801,19.6391525 55.8607268,19.9692455 55.5508576,20.4462851 M56.3644532,19.3087528 C56.0220855,19.0679321 55.5508576,18.9473684 54.9443453,18.9473684 C54.3370772,18.9473684 53.8854995,19.0731473 53.549556,19.3142748 C53.2332627,19.5449717 53.0526316,19.9063561 53.0526316,20.2103729 C53.0526316,20.5824945 53.2396868,20.902157 53.5299057,21.1119931 C53.8658493,21.3531205 54.3824239,21.4736842 54.9443453,21.4736842 C55.5444335,21.4736842 56.0092373,21.3475985 56.351605,21.1015626 C56.6678983,20.8708657 56.8421053,20.4987441 56.8421053,20.2051577 C56.8421053,19.8434666 56.6871707,19.5394497 56.3644532,19.3087528" id="Fill-18"></path>
                    <path d="M51.7894737,17.8633283 L51.7894737,22.7368421 L52.8825147,22.7368421 C52.9910238,22.7368421 53.0526316,22.6651111 53.0526316,22.5573048 L53.0526316,17.6842105 L51.9591931,17.6842105 C51.857441,17.6842105 51.7894737,17.7559415 51.7894737,17.8633283" id="Fill-19"></path>
                    <path d="M63.1886712,21.1579204 C63.1702775,21.2002276 63.151523,21.2491068 63.13349,21.291414 C62.8500098,21.901788 62.4864627,22.1543991 62.0673736,21.9650435 C61.6544159,21.7752771 61.6114971,21.2983968 61.9191416,20.6317501 C62.215245,20.0069999 62.5787921,19.7613716 62.9856186,19.9581206 C63.0718168,20.0000171 63.13349,20.0562898 63.1886712,20.1195453 C63.2813613,20.2316799 63.330772,20.3717456 63.330772,20.5475464 L63.330772,20.5545292 C63.330772,20.7299193 63.2813613,20.9336511 63.1886712,21.1579204 L63.1886712,21.1579204 Z M63.355297,17.6842105 C63.2503444,17.6842105 63.18254,17.7614315 63.18254,17.8735661 L63.18254,19.2770977 C62.9856186,19.2212358 62.7634509,19.192894 62.5232502,19.192894 C61.913371,19.192894 61.4636258,19.3686949 61.1307349,19.7050989 C60.8101065,20.0283588 60.6315789,20.5405637 60.6315789,20.9611713 C60.6315789,21.4807696 60.8165985,21.9367018 61.1123411,22.2246373 C61.4448713,22.5684347 61.9627817,22.7368421 62.5232502,22.7368421 C62.7699428,22.7368421 62.9856186,22.7089111 63.18254,22.6526384 L63.18254,22.7368421 L64.2482956,22.7368421 C64.3593795,22.7368421 64.4210526,22.6596212 64.4210526,22.5474865 L64.4210526,17.6842105 L63.355297,17.6842105 Z" id="Fill-20"></path>
                    <path d="M51.4771672,19.2480177 C51.1013018,19.0194242 50.7187596,18.9256735 50.0008057,18.9515463 C49.4375968,18.9725489 48.8602487,19.1283942 48.4847761,19.409342 C48.2365557,19.5965391 48.035073,19.9344069 48.007973,20.1739583 C47.9612353,20.4963025 48.1222643,20.8862203 48.4309688,21.0995945 C48.7930878,21.3488862 49.3433359,21.4736842 49.954068,21.4736842 C50.604861,21.4736842 51.1013018,21.3437116 51.4638136,21.0941155 C51.5309745,21.0475446 51.584389,21.0006692 51.6381963,20.9486193 L51.3094613,20.7924696 C51.3094613,20.7924696 50.7458596,21.2085645 50.0946739,21.1772128 C49.4375968,21.1409909 49.2156909,20.8238213 49.2628213,20.485649 C49.2628213,20.485649 49.2628213,20.0595094 49.8397767,19.409342 C49.9740985,19.2531923 50.1889348,19.2117959 50.3837407,19.2273195 C50.4842856,19.2324941 50.5648002,19.2635414 50.631961,19.3155913 C50.6991219,19.3676412 50.732506,19.4352148 50.7391828,19.5186164 C50.7458596,19.6172373 50.7258292,19.7058135 50.6786987,19.7837361 L51.7791949,19.7837361 C51.8192557,19.6382399 51.7387412,19.4562174 51.5981354,19.331115 C51.5510049,19.3052422 51.5176208,19.2738905 51.4771672,19.2480177" id="Fill-21"></path>
                    <path d="M84.6036179,20.4462851 C84.325897,20.8812961 83.9578695,21.0647493 83.5448777,20.9285399 C83.1250846,20.7923306 83.0861659,20.4515003 83.3963821,19.979676 C83.6933734,19.5342345 84.0549774,19.3563033 84.4615457,19.5029432 C84.868114,19.6391525 84.9130784,19.9692455 84.6036179,20.4462851 M85.4167546,19.3090595 C85.0747989,19.0679321 84.6036179,18.9473684 83.9967883,18.9473684 C83.3899586,18.9473684 82.9380481,19.0731473 82.602138,19.3142748 C82.2858762,19.5449717 82.1052632,19.9063561 82.1052632,20.2103729 C82.1052632,20.5824945 82.2926776,20.902157 82.5828676,21.1119931 C82.9187777,21.3531205 83.4349229,21.4736842 83.9967883,21.4736842 C84.5968166,21.4736842 85.0619519,21.3475985 85.4039076,21.1015626 C85.7201694,20.8708657 85.8947368,20.4987441 85.8947368,20.2051577 C85.8947368,19.8437734 85.7398177,19.5394497 85.4167546,19.3090595" id="Fill-22"></path>
                    <path d="M70.7368421,17.8633283 L70.7368421,22.7368421 L71.8302805,22.7368421 C71.9387897,22.7368421 72,22.6651111 72,22.5573048 L72,17.6842105 L70.9065616,17.6842105 C70.8048094,17.6842105 70.7368421,17.7559415 70.7368421,17.8633283" id="Fill-23"></path>
                    <path d="M75.7681338,20.3044089 C74.8899148,20.266738 74.4512158,20.3922087 74.4512158,20.681414 C74.4725557,20.894981 74.6761055,21.0082902 75.0614548,21.0207483 C75.553914,21.0207483 75.7890633,20.7819685 75.7681338,20.3044089 M74.6440956,19.7013787 L73.4556274,19.7013787 C73.4769673,19.424928 73.6698471,19.2238191 74.0338566,19.0980518 C74.3116856,18.997794 74.7187853,18.9473684 75.2543347,18.9473684 C76.4099723,18.9473684 76.9886119,19.2487352 76.9886119,19.8520621 L76.9886119,21.1714317 C76.9886119,21.1966445 76.9988714,21.2218572 77.0206217,21.2467734 C77.0415512,21.2971989 77.0526316,21.3597859 77.0526316,21.4354243 L75.9610136,21.4354243 C75.9175131,21.3221151 75.8961732,21.2153316 75.8961732,21.1147771 C75.639684,21.3663116 75.2112445,21.4852566 74.6120858,21.4727985 C73.7338668,21.4475857 73.2840874,21.2153316 73.2631579,20.7754428 C73.3058377,20.4111924 73.6054171,20.1534289 74.1623064,20.0027455 C74.5476557,19.9152423 75.0827947,19.8707492 75.7681338,19.8707492 L75.7681338,19.6447241 C75.7250436,19.4560732 75.5321637,19.3558154 75.1899046,19.3430607 C74.8689853,19.3558154 74.6867754,19.4750569 74.6440956,19.7013787" id="Fill-24"></path>
                    <path d="M68.8286364,21.7508209 C68.334658,21.7339762 68.0685576,21.3770273 68.0310632,20.6803753 C68.0685576,19.9668786 68.334658,19.6019084 68.8286364,19.5846626 C69.3597452,19.5846626 69.616381,19.9500338 69.5974518,20.6803753 C69.616381,21.393872 69.3597452,21.7508209 68.8286364,21.7508209 M69.0277567,18.9473684 C68.6291521,18.9646143 68.3059002,19.1174205 68.059457,19.4061881 L68.0310632,19.4061881 L68.0023055,19.0239721 L67.2196572,19.0239721 L67.2196572,19.0263785 L67.102806,19.0263785 C67.0096163,19.0263785 66.9473684,19.0949608 66.9473684,19.1976337 L66.9473684,19.3700922 C66.9477324,19.3737018 66.9480965,19.3769103 66.9484605,19.3805199 L66.9484605,19.6865334 L66.9484605,24 L67.9036554,24 C67.9760959,23.9887701 68.0245108,23.933423 68.0310632,23.8508034 L68.0310632,21.8526917 L68.059457,21.8526917 C68.2680419,22.1927958 68.6386167,22.3624468 69.1700895,22.3624468 C70.1391172,22.3279551 70.6607614,21.7676657 70.7368421,20.6803753 C70.6607614,19.5762402 70.0914303,18.9983038 69.0277567,18.9473684" id="Fill-25"></path>
                    <path d="M78.81831,20.200976 L79.4612586,20.200976 C79.5251369,20.1907223 79.5685324,20.1443908 79.5789474,20.0745139 L79.5789474,19.5736025 L78.81831,19.5736025 L78.81831,18.9473684 L77.8518042,18.9682556 C77.8021597,18.9845855 77.7695262,19.0252204 77.7587641,19.0818056 L77.7587641,19.5736025 L77.3209897,19.5736025 L77.3209897,19.5758811 L77.2088556,19.5758811 C77.1199815,19.5758811 77.0609635,19.6408211 77.0609635,19.7380412 L77.0609635,20.0285622 L77.0526316,20.0285622 L77.0526316,20.200976 L77.7587641,20.200976 L77.7587641,21.7211792 C77.7223118,22.4294428 78.0482993,22.766675 78.7370735,22.7347746 C79.0085562,22.7184447 79.289065,22.7021148 79.5789474,22.6865444 L79.5789474,22.1313265 C79.4702849,22.1476564 79.352249,22.1556315 79.2258811,22.1556315 C78.9175991,22.2038618 78.7822049,22.0348659 78.81831,21.6490237 L78.81831,20.200976 Z" id="Fill-26"></path>
                    <path d="M81.4737803,17.687901 C80.4710178,17.6345109 80.150472,18.1600044 80.150472,19.2908663 L79.8687453,19.2908663 L79.8687453,19.2921274 L79.7449855,19.2921274 C79.6465925,19.2921274 79.5808691,19.3640149 79.5808691,19.4720564 L79.5808691,19.7936584 L79.5789474,19.7936584 L79.5789474,19.9853584 L80.150472,19.9853584 L80.150472,22.7368421 L81.039852,22.7368421 L81.039852,22.7263322 L81.1636119,22.7263322 C81.2527805,22.7263322 81.31197,22.6657954 81.3231161,22.5749901 L81.3231161,19.9853584 L81.8577434,19.9853584 C81.9461433,19.9836768 82.0053328,19.9227196 82.0149415,19.8306531 L82.0149415,19.2908663 L81.3231161,19.2908663 C81.2028153,18.5606406 81.4634029,18.2579563 82.1052632,18.3823932 L82.1052632,17.7412912 C81.9046338,17.705978 81.6940114,17.687901 81.4737803,17.687901" id="Fill-27"></path>
                    <path d="M87.0138199,19.4352351 L86.9819396,19.4352351 L86.9819396,18.9693126 L86.0631306,18.9693126 C85.971168,18.9766452 85.9102683,19.0246123 85.9102683,19.0970212 L85.9102683,19.6900412 L85.8947368,19.6900412 L85.8947368,21.4736842 L86.8082324,21.4736842 L86.8082324,21.4660461 L86.9394324,21.4660461 C87.035891,21.4660461 87.0996517,21.4211343 87.1098698,21.3533082 L87.1098698,20.2311224 L87.1098698,20.1535196 C87.152377,19.9983139 87.2059197,19.8754937 87.2696804,19.7847534 C87.3763571,19.7071505 87.5786749,19.6487956 87.8774513,19.6099942 L88.4210526,19.6099942 L88.4210526,18.9500647 C87.7176406,18.9240952 87.2484268,19.0857168 87.0138199,19.4352351" id="Fill-28"></path>
                    <path d="M94.6153846,19.4072379 C94.3724696,19.1392593 93.9576516,18.9863007 93.3705424,18.9480611 C92.8036114,18.935716 92.3581379,19.0883735 92.03451,19.4072379 C91.8315634,19.1392593 91.4167454,18.9863007 90.7896677,18.9480611 C90.2627052,18.9480611 89.8680653,19.0694042 89.6053602,19.3117894 L89.5750928,19.3117894 L89.5750928,19.0055711 L88.5739416,19.0055711 C88.4866319,19.0124964 88.4284255,19.0600701 88.4284255,19.1311296 L88.4284255,19.7155639 L88.4210526,19.7155639 L88.4210526,21.4736842 L89.4412179,21.4736842 C89.5393928,21.4727809 89.6049721,21.4218951 89.6049721,21.3454158 L89.6049721,21.1147735 L89.6053602,21.1147735 L89.6053602,20.0004041 C89.6251504,19.6436011 89.8579762,19.4521017 90.3038377,19.4262072 C90.7485351,19.4262072 90.981749,19.6177065 91.0019273,20.0004041 L91.0019273,21.4736842 L91.9957057,21.4736842 C92.0861197,21.4727809 92.1466544,21.4282182 92.1559675,21.3616752 L92.1559675,20.0004041 C92.2165022,19.6436011 92.44894,19.4521017 92.854445,19.4262072 C93.3197087,19.4262072 93.5529226,19.6177065 93.5529226,20.0004041 L93.5529226,21.4736842 L94.5754162,21.4736842 C94.6689346,21.4727809 94.7306334,21.4261105 94.7368421,21.3556532 L94.7368421,20.0004041 C94.7368421,19.7327265 94.6960976,19.5349041 94.6153846,19.4072379" id="Fill-29"></path>
                </g>
            </g>
        </g>
    </g>
</svg>